<?xml version="1.0" encoding="UTF-8" standalone="no"?>
<svg
   xmlns:dc="http://purl.org/dc/elements/1.1/"
   xmlns:cc="http://creativecommons.org/ns#"
   xmlns:rdf="http://www.w3.org/1999/02/22-rdf-syntax-ns#"
   xmlns:svg="http://www.w3.org/2000/svg"
   xmlns="http://www.w3.org/2000/svg"
   id="svg22"
   xml:space="preserve"
   enable-background="new 0 0 47.517 15.916"
   viewBox="0 0 47.517 15.916"
   height="15.916px"
   width="47.517px"
   y="0px"
   x="0px"
   version="1.1"><metadata
     id="metadata28"><rdf:RDF><cc:Work
         rdf:about=""><dc:format>image/svg+xml</dc:format><dc:type
           rdf:resource="http://purl.org/dc/dcmitype/StillImage" /></cc:Work></rdf:RDF></metadata><defs
     id="defs26" /><switch
     id="switch20"><g
       id="g18"><g
         id="g16"><path
           style="fill:none;stroke:#000000;stroke-width:0.7159;stroke-miterlimit:10"
           id="path2"
           d="m 0.358,0.358 h 46.8 v 15.2 h -46.8 z"
           stroke-miterlimit="10" /><path
           style="fill:none;stroke:#000000;stroke-width:0.7159;stroke-miterlimit:10"
           id="path4"
           d="m 23.732,0.358 v 15.2"
           stroke-miterlimit="10" /><path
           id="path6"
           d="M 11.31,9.993 H 7.707 V 8.436 h 3.255 V 7.242 H 7.707 V 5.923 H 11.15 V 4.732 H 6.389 v 0.038 1.153 1.319 1.194 1.557 1.196 0 h 1.318 v 0 h 3.604 V 9.993 Z" /><path
           id="path8"
           d="M 38.165,9.993 H 34.561 V 8.436 h 3.252 V 7.242 H 34.561 V 5.923 h 3.44 V 4.732 H 33.24 v 0.038 1.153 1.319 1.194 1.557 1.196 0 h 1.32 v 0 h 3.604 V 9.993 Z" /><path
           id="path10"
           d="m 16.286,6.911 1.301,-0.358 c 0,0 -0.35,-1.876 -2.56,-1.876 -2.209,0 -2.936,1.657 -2.936,3.302 0,1.648 0.659,3.29 2.842,3.29 2.183,0 2.653,-1.813 2.653,-2.121 L 16.304,8.77 c 0,0 -0.225,1.387 -1.389,1.387 -1.162,0 -1.558,-1.362 -1.558,-2.183 0,-0.823 0.377,-2.157 1.593,-2.157 1.216,-0.001 1.336,1.094 1.336,1.094 z" /><path
           id="path12"
           d="M 30.553,8.43 V 8.339 c 0,0 1.496,-0.091 1.496,-1.793 0,-1.756 -1.621,-1.813 -2.473,-1.813 h -1.357 -0.435 -0.993 v 6.457 h 1.428 V 8.483 c 0.26,-0.019 0.943,-0.019 1.255,0.433 0.387,0.559 1.554,2.272 1.554,2.272 h 1.534 v -0.12 c 0,-0.002 -1.188,-2.242 -2.009,-2.638 z M 29.999,7.441 h -1.78 v -1.54 h 1.357 c 0,0 1.108,-0.092 1.108,0.718 10e-4,0.811 -0.685,0.822 -0.685,0.822 z" /><path
           id="path14"
           d="m 41.823,4.732 h -1.378 -0.038 -1.273 v 6.457 h 1.312 V 8.774 h 1.239 c 0,0 2.346,0.227 2.346,-1.988 C 44.03,4.572 41.823,4.732 41.823,4.732 Z m -0.63,2.915 H 40.445 V 5.923 h 1.315 c 0,0 0.86,-0.007 0.86,0.884 0.001,0.892 -1.427,0.84 -1.427,0.84 z" /></g></g></switch></svg>