<?xml version="1.0" encoding="UTF-8" standalone="no"?>
<svg
   xmlns:dc="http://purl.org/dc/elements/1.1/"
   xmlns:cc="http://creativecommons.org/ns#"
   xmlns:rdf="http://www.w3.org/1999/02/22-rdf-syntax-ns#"
   xmlns:svg="http://www.w3.org/2000/svg"
   xmlns="http://www.w3.org/2000/svg"
   xmlns:xlink="http://www.w3.org/1999/xlink"
   id="svg122"
   xml:space="preserve"
   enable-background="new 0 0 401.583 252.334"
   viewBox="0 0 401.583 252.334"
   height="252.334px"
   width="401.583px"
   y="0px"
   x="0px"
   version="1.1"><metadata
     id="metadata128"><rdf:RDF><cc:Work
         rdf:about=""><dc:format>image/svg+xml</dc:format><dc:type
           rdf:resource="http://purl.org/dc/dcmitype/StillImage" /></cc:Work></rdf:RDF></metadata><defs
     id="defs126" /><switch
     id="switch120"><g
       id="g118"><symbol
         viewBox="-6.821 -6.821 13.642 13.641"
         id="LabelsColumnWide_x5F_01"><g
           id="g16"><g
             id="g14"><g
               id="g12"><path
                 id="polygon2"
                 d="M -6.821,6.819 V -6.819 H 6.821 V 6.819 Z"
                 style="fill:none" /><g
                 id="g10"><path
                   style="fill:#ffffff;stroke:#000000;stroke-width:0.6103"
                   id="path4"
                   d="m 6.516,-0.009 c 0,-3.595 -2.912,-6.507 -6.505,-6.507 -3.583,0 -6.526,2.912 -6.526,6.507 0,3.583 2.942,6.523 6.526,6.523 3.593,0.002 6.505,-2.94 6.505,-6.523 z" /><g
                   id="g8"><path
                     id="path6"
                     d="m -1.88,2.088 h 0.18 c 1.215,0 1.539,0.631 1.565,1.107 H 0.9 v -6.39 h -1.26 v 4.4 h -1.52 z" /></g></g></g></g></g></symbol><symbol
         viewBox="-6.821 -6.821 13.642 13.641"
         id="LabelsColumnWide_x5F_02"><g
           id="g33"><g
             id="g31"><g
               id="g29"><path
                 id="polygon19"
                 d="M -6.821,6.819 V -6.819 H 6.821 V 6.819 Z"
                 style="fill:none" /><g
                 id="g27"><path
                   style="fill:#ffffff;stroke:#000000;stroke-width:0.6103"
                   id="path21"
                   d="m 6.516,-0.009 c 0,-3.595 -2.912,-6.507 -6.505,-6.507 -3.583,0 -6.526,2.912 -6.526,6.507 0,3.583 2.943,6.523 6.526,6.523 3.593,0.002 6.505,-2.94 6.505,-6.523 z" /><g
                   id="g25"><path
                     id="path23"
                     d="m -2.195,0.937 c 0,2.079 1.521,2.26 2.088,2.26 1.224,0 2.195,-0.722 2.195,-2.017 0,-1.098 -0.711,-1.655 -1.332,-2.078 -0.846,-0.595 -1.287,-0.883 -1.431,-1.18 h 2.771 v -1.115 h -4.364 c 0.045,0.746 0.099,1.529 1.485,2.537 1.151,0.837 1.61,1.161 1.61,1.881 0,0.424 -0.27,0.908 -0.882,0.908 -0.882,0 -0.909,-0.729 -0.917,-1.196 z" /></g></g></g></g></g></symbol><symbol
         viewBox="-6.821 -6.821 13.643 13.641"
         id="LabelsColumnWide_x5F_03"><g
           id="g48"><g
             id="g46"><path
               id="polygon36"
               d="M 6.821,6.819 H -6.821 V -6.819 H 6.821 Z"
               style="fill:none" /><g
               id="g44"><path
                 style="fill:#ffffff;stroke:#000000;stroke-width:0.6103"
                 id="path38"
                 d="m 6.516,-0.009 c 0,-3.595 -2.912,-6.507 -6.506,-6.507 -3.583,0 -6.526,2.912 -6.526,6.507 0,3.583 2.943,6.523 6.526,6.523 3.594,0.002 6.506,-2.94 6.506,-6.523 z" /><g
                 id="g42"><path
                   id="path40"
                   d="m -0.585,0.502 h 0.199 c 0.378,0 1.071,0.037 1.071,0.865 0,0.232 -0.108,0.817 -0.801,0.817 -0.864,0 -0.864,-0.817 -0.864,-1.044 h -1.17 c 0,1.196 0.675,2.053 2.114,2.053 0.855,0 1.98,-0.433 1.98,-1.781 0,-0.648 -0.405,-1.054 -0.765,-1.215 V 0.179 c 0.225,-0.063 0.963,-0.396 0.963,-1.484 0,-1.205 -0.891,-2.062 -2.178,-2.062 -0.603,0 -2.222,0.136 -2.222,2.133 h 1.232 l -0.009,-0.008 c 0,-0.343 0.09,-1.117 0.936,-1.117 0.504,0 0.945,0.344 0.945,1.054 0,0.873 -0.846,0.909 -1.431,0.909 z" /></g></g></g></g></symbol><symbol
         viewBox="-6.821 -6.821 13.642 13.641"
         id="LabelsColumnWide_x5F_04"><g
           id="g65"><g
             id="g63"><g
               id="g61"><path
                 id="polygon51"
                 d="M -6.821,6.819 V -6.819 H 6.821 V 6.819 Z"
                 style="fill:none" /><g
                 id="g59"><path
                   style="fill:#ffffff;stroke:#000000;stroke-width:0.6103"
                   id="path53"
                   d="m 6.516,-0.009 c 0,-3.595 -2.912,-6.507 -6.505,-6.507 -3.583,0 -6.526,2.912 -6.526,6.507 0,3.583 2.943,6.523 6.526,6.523 3.593,0.002 6.505,-2.94 6.505,-6.523 z" /><g
                   id="g57"><path
                     id="path55"
                     d="M 2.233,-1.781 H 1.521 V -3.193 H 0.262 v 1.412 h -2.52 v 1.089 L 0.09,3.196 H 1.521 V -0.8 H 2.232 Z M 0.262,-0.8 c 0,1.547 0.027,2.546 0.027,2.744 H 0.271 L -1.331,-0.8 Z" /></g></g></g></g></g></symbol><path
         id="rect68"
         d="M 0.315,0.30000001 H 401.28201 V 18.557 H 0.315 Z"
         style="fill:none;stroke:#000000;stroke-width:0.6006;stroke-miterlimit:10" /><path
         id="rect70"
         d="m 0.315,18.563 h 400.88 V 99.680996 H 0.315 Z"
         style="fill:none;stroke:#000000;stroke-width:0.62949997;stroke-miterlimit:10" /><path
         id="rect72"
         d="m 0.315,99.610001 h 400.88 V 252.02499 H 0.315 Z"
         style="fill:none;stroke:#000000;stroke-width:0.6189;stroke-miterlimit:10" /><path
         id="rect74"
         d="m 321.065,19.061001 h 80.444 V 251.56201 h -80.444 z"
         style="opacity:0.15;fill:#999999" /><g
         id="g94"><g
           id="g92"><path
             id="polyline76"
             d="M 321.197,19.012 V 18.53 h 0.481"
             style="fill:none;stroke:#4a4a4a;stroke-width:0.57669997;stroke-miterlimit:10" /><path
             id="line78"
             d="m 322.63101,18.530001 h 77.633"
             style="fill:none;stroke:#4a4a4a;stroke-width:0.57669997;stroke-miterlimit:10;stroke-dasharray:0.9526, 0.9526" /><path
             id="polyline80"
             d="m 400.741,18.53 h 0.481 v 0.482"
             style="fill:none;stroke:#4a4a4a;stroke-width:0.57669997;stroke-miterlimit:10" /><path
             id="line82"
             d="M 401.22198,19.976999 V 251.02"
             style="fill:none;stroke:#4a4a4a;stroke-width:0.57669997;stroke-miterlimit:10;stroke-dasharray:0.9647, 0.9647" /><path
             id="polyline84"
             d="m 401.222,251.502 v 0.482 h -0.481"
             style="fill:none;stroke:#4a4a4a;stroke-width:0.57669997;stroke-miterlimit:10" /><path
             id="line86"
             d="M 399.78799,251.98399 H 322.155"
             style="fill:none;stroke:#4a4a4a;stroke-width:0.57669997;stroke-miterlimit:10;stroke-dasharray:0.9526, 0.9526" /><path
             id="polyline88"
             d="m 321.678,251.984 h -0.481 v -0.482"
             style="fill:none;stroke:#4a4a4a;stroke-width:0.57669997;stroke-miterlimit:10" /><path
             id="line90"
             d="M 321.19699,250.53799 V 19.493999"
             style="fill:none;stroke:#4a4a4a;stroke-width:0.57669997;stroke-miterlimit:10;stroke-dasharray:0.9647, 0.9647" /></g></g><use
         style="overflow:visible"
         id="use96"
         overflow="visible"
         transform="matrix(1,0,0,-1,13.8315,9.189)"
         y="-6.8210001"
         x="-6.8210001"
         height="13.641"
         width="13.642"
         xlink:href="#LabelsColumnWide_x5F_01" /><use
         style="overflow:visible"
         id="use98"
         overflow="visible"
         transform="matrix(1,0,0,-1,13.832,31.9771)"
         y="-6.8210001"
         x="-6.8210001"
         height="13.641"
         width="13.642"
         xlink:href="#LabelsColumnWide_x5F_02" /><use
         style="overflow:visible"
         id="use100"
         overflow="visible"
         transform="matrix(1,0,0,-1,13.832,112.0654)"
         y="-6.8210001"
         x="-6.8210001"
         height="13.641"
         width="13.643"
         xlink:href="#LabelsColumnWide_x5F_03" /><use
         style="overflow:visible"
         id="use102"
         overflow="visible"
         transform="matrix(1,0,0,-1,390.9771,26.939)"
         y="-6.8210001"
         x="-6.8210001"
         height="13.641"
         width="13.642"
         xlink:href="#LabelsColumnWide_x5F_04" /><g
         id="g116"><g
           id="g114"><path
             id="line104"
             d="m 328.72699,26.399 h 49.203"
             style="fill:none;stroke:#000000;stroke-width:0.83710003;stroke-miterlimit:10" /><g
             id="g108"><path
               id="polygon106"
               d="m 329.168,26.399 1.977,-3.402 -8.329,3.402 8.329,3.403 z"
               style="" /></g><g
             id="g112"><path
               id="polygon110"
               d="m 377.488,26.399 -1.977,-3.402 8.329,3.402 -8.329,3.403 z"
               style="" /></g></g></g></g></switch></svg>