<?xml version="1.0" encoding="UTF-8" standalone="no"?>
<svg
   xmlns:dc="http://purl.org/dc/elements/1.1/"
   xmlns:cc="http://creativecommons.org/ns#"
   xmlns:rdf="http://www.w3.org/1999/02/22-rdf-syntax-ns#"
   xmlns:svg="http://www.w3.org/2000/svg"
   xmlns="http://www.w3.org/2000/svg"
   id="svg15"
   xml:space="preserve"
   enable-background="new 0 0 60 60"
   viewBox="0 0 60 60"
   height="60px"
   width="60px"
   y="0px"
   x="0px"
   version="1.1"><metadata
     id="metadata21"><rdf:RDF><cc:Work
         rdf:about=""><dc:format>image/svg+xml</dc:format><dc:type
           rdf:resource="http://purl.org/dc/dcmitype/StillImage" /></cc:Work></rdf:RDF></metadata><defs
     id="defs19" /><switch
     id="switch13"><g
       id="g11"><path
         id="XMLID_11604_"
         d="M 0,0 H 60 V 60 H 0 Z"
         style="fill:#102145" /><g
         id="XMLID_10117_"><g
           id="XMLID_10653_"><path
             style="fill:none;stroke:#ffffff;stroke-width:1.42579997;stroke-miterlimit:10"
             d="M 28.147,53.65 H 15.922 c -4.36,0 -8.11,-3.721 -8.11,-8.04 V 14.893 c 0,-4.319 3.75,-8.283 8.11,-8.283 h 12.225 z"
             stroke-miterlimit="10"
             id="XMLID_10888_" /><path
             style="fill:none;stroke:#ffffff;stroke-width:1.42579997;stroke-miterlimit:10"
             d="M 51.782,15.849 H 50.014 C 49.65,9.131 46.265,6.61 42.15,6.61 H 30.771 v 47.04 h 11.502 c 3.991,0 7.377,0.839 7.862,-5.88 h 1.812 c 0.249,0 0.249,-0.122 0.249,-0.358 V 45.973 17.17 16.452 c -0.123,-0.239 -0.041,-0.603 -0.414,-0.603 z"
             stroke-miterlimit="10"
             id="XMLID_10680_" /><g
             id="XMLID_10658_"><path
               style="fill:none;stroke:#ffffff;stroke-width:1.42579997;stroke-miterlimit:10"
               d="m 23.911,14.17 c 0,0.962 -0.727,1.681 -1.697,1.681 h -8.35 c -0.97,0 -1.696,-0.717 -1.696,-1.681 v -0.839 c 0,-0.956 0.726,-1.676 1.696,-1.676 h 8.35 c 0.973,0 1.697,0.72 1.697,1.676 z"
               stroke-miterlimit="10"
               id="XMLID_10660_" /><path
               style="fill:#ffffff"
               d="m 15.922,14.415 c 0,0.478 -0.483,0.958 -0.968,0.958 h -0.606 c -0.485,0 -0.97,-0.48 -0.97,-0.958 v -0.606 c 0,-0.48 0.485,-0.959 0.97,-0.959 h 0.606 c 0.482,0 0.968,0.479 0.968,0.959 z"
               id="XMLID_10659_" /></g></g></g><path
         id="XMLID_1_"
         d="m 31.562,33.717 h 7.576 l 1.79,4.779 2.568,-12.313 2.129,7.534 h 5.705"
         style="fill:none;stroke:#ffffff;stroke-width:2.3749001;stroke-miterlimit:10" /></g></switch></svg>