<?xml version="1.0" encoding="UTF-8" standalone="no"?>
<svg
   xmlns:dc="http://purl.org/dc/elements/1.1/"
   xmlns:cc="http://creativecommons.org/ns#"
   xmlns:rdf="http://www.w3.org/1999/02/22-rdf-syntax-ns#"
   xmlns:svg="http://www.w3.org/2000/svg"
   xmlns="http://www.w3.org/2000/svg"
   id="svg15"
   xml:space="preserve"
   enable-background="new 0 0 60 60"
   viewBox="0 0 60 60"
   height="60px"
   width="60px"
   y="0px"
   x="0px"
   version="1.1"><metadata
     id="metadata21"><rdf:RDF><cc:Work
         rdf:about=""><dc:format>image/svg+xml</dc:format><dc:type
           rdf:resource="http://purl.org/dc/dcmitype/StillImage" /></cc:Work></rdf:RDF></metadata><defs
     id="defs19" /><switch
     id="switch13"><g
       id="g11"><path
         id="rect2"
         d="M 0,0 H 60 V 60 H 0 Z"
         style="fill:#171e43" /><path
         style="fill:#79bc43"
         d="m 33.477,20.455 c 0,1.149 -0.936,2.091 -2.078,2.091 h -2.181 c -1.143,0 -2.078,-0.941 -2.078,-2.091 v -6.364 c 0,-1.143 0.935,-2.078 2.078,-2.078 h 2.181 c 1.143,0 2.078,0.935 2.078,2.078 z"
         id="XMLID_2_" /><g
         style="opacity:0.35"
         id="unpaired"><path
           style="fill:#b1d6e7"
           id="path5"
           d="M 39.501,8.481 C 38.878,5.156 36.178,2.664 32.957,2.352 c -0.207,0 -1.559,0 -2.806,0 -1.245,0 -2.597,0 -2.803,0 C 24.127,2.664 21.53,5.156 20.907,8.481 20.7,8.896 20.7,9.417 20.491,9.832 c 1.351,-2.285 3.741,-3.844 6.441,-4.051 0.208,0 1.455,-0.104 3.22,-0.104 1.767,0 3.117,0 3.325,0.104 2.701,0.208 5.09,1.766 6.44,4.051 C 39.813,9.417 39.71,8.896 39.501,8.481 Z" /></g><g
         id="unpaired_1_"><path
           style="opacity:0.35;fill:#b1d6e7"
           id="path8"
           d="M 40.861,13.312 C 39.822,9.369 37.127,7.5 33.39,7.189 c -0.207,0 -1.557,-0.103 -3.014,-0.103 v 0 0 h -0.104 -0.104 v 0 h -0.103 v 0 c -1.448,0 -2.798,0 -3.005,0.103 -3.735,0.209 -6.537,2.18 -7.574,6.123 -0.934,3.424 -1.557,8.195 -1.557,14.109 0,0.207 0.208,9.541 0.52,12.031 0.207,4.564 1.037,8.197 1.764,10.998 0.727,3.216 3.112,5.81 6.225,6.536 0.312,0.104 3.938,0.209 3.938,0.209 0,0 3.637,-0.105 3.947,-0.209 3.01,-0.83 5.396,-3.32 6.227,-6.536 0.725,-2.801 1.453,-6.328 1.764,-10.998 0.311,-2.49 0.518,-11.928 0.518,-12.031 -0.311,-5.914 -0.934,-10.686 -1.971,-14.109 z m 0.207,25.83 c -0.207,4.357 -0.934,7.885 -1.66,10.479 -0.727,3.112 -2.801,5.499 -5.602,6.328 -0.209,0.105 -3.533,0.208 -3.533,0.208 0,0 -3.315,-0.103 -3.523,-0.208 C 23.949,55.223 21.771,52.733 21.147,49.621 20.42,47.027 19.798,43.5 19.487,39.142 19.28,36.755 19.072,27.837 19.072,27.628 c 0,-5.705 0.622,-10.168 1.452,-13.487 0.934,-3.735 3.425,-5.603 6.849,-5.811 0.207,0 1.452,0 2.693,0 v 0 0 h 0.103 0.208 v 0 0 c 1.25,0 2.598,0 2.703,0 3.424,0.208 5.914,1.972 6.848,5.811 0.934,3.319 1.453,7.886 1.453,13.487 0.103,0.209 0,9.127 -0.313,11.514 z" /></g></g></switch></svg>