<?xml version="1.0" encoding="UTF-8" standalone="no"?>
<svg
   xmlns:dc="http://purl.org/dc/elements/1.1/"
   xmlns:cc="http://creativecommons.org/ns#"
   xmlns:rdf="http://www.w3.org/1999/02/22-rdf-syntax-ns#"
   xmlns:svg="http://www.w3.org/2000/svg"
   xmlns="http://www.w3.org/2000/svg"
   id="svg18"
   xml:space="preserve"
   enable-background="new 0 0 60 60"
   viewBox="0 0 60 60"
   height="60px"
   width="60px"
   y="0px"
   x="0px"
   version="1.1"><metadata
     id="metadata24"><rdf:RDF><cc:Work
         rdf:about=""><dc:format>image/svg+xml</dc:format><dc:type
           rdf:resource="http://purl.org/dc/dcmitype/StillImage" /></cc:Work></rdf:RDF></metadata><defs
     id="defs22" /><switch
     id="switch16"><g
       id="g14"><path
         id="rect2"
         d="M 0,0 H 60 V 60 H 0 Z"
         style="fill:#171e43" /><path
         id="circle4"
         d="m 9.7970002,29.819 a 3.279,3.279 0 0 1 -3.2790001,3.279 3.279,3.279 0 0 1 -3.279,-3.279 3.279,3.279 0 0 1 3.279,-3.279 3.279,3.279 0 0 1 3.2790001,3.279 z"
         style="fill:#ffffff" /><path
         id="circle6"
         d="m 21.597001,29.819 a 3.279,3.279 0 0 1 -3.279,3.279 3.279,3.279 0 0 1 -3.279,-3.279 3.279,3.279 0 0 1 3.279,-3.279 3.279,3.279 0 0 1 3.279,3.279 z"
         style="fill:#ffffff" /><path
         id="circle8"
         d="m 33.616999,29.819 a 3.279,3.279 0 0 1 -3.279,3.279 3.279,3.279 0 0 1 -3.279,-3.279 3.279,3.279 0 0 1 3.279,-3.279 3.279,3.279 0 0 1 3.279,3.279 z"
         style="fill:#ffffff" /><path
         id="circle10"
         d="m 45.422002,29.819 a 3.279,3.279 0 0 1 -3.279,3.279 3.279,3.279 0 0 1 -3.279,-3.279 3.279,3.279 0 0 1 3.279,-3.279 3.279,3.279 0 0 1 3.279,3.279 z"
         style="fill:#ffffff" /><path
         id="circle12"
         d="m 57.221001,29.819 a 3.279,3.279 0 0 1 -3.279,3.279 3.279,3.279 0 0 1 -3.279,-3.279 3.279,3.279 0 0 1 3.279,-3.279 3.279,3.279 0 0 1 3.279,3.279 z"
         style="fill:#ffffff" /></g></switch></svg>