<?xml version="1.0" encoding="UTF-8" standalone="no"?>
<svg
   xmlns:dc="http://purl.org/dc/elements/1.1/"
   xmlns:cc="http://creativecommons.org/ns#"
   xmlns:rdf="http://www.w3.org/1999/02/22-rdf-syntax-ns#"
   xmlns:svg="http://www.w3.org/2000/svg"
   xmlns="http://www.w3.org/2000/svg"
   id="svg22"
   xml:space="preserve"
   enable-background="new 0 0 60 60"
   viewBox="0 0 60 60"
   height="60px"
   width="60px"
   y="0px"
   x="0px"
   version="1.1"><metadata
     id="metadata28"><rdf:RDF><cc:Work
         rdf:about=""><dc:format>image/svg+xml</dc:format><dc:type
           rdf:resource="http://purl.org/dc/dcmitype/StillImage" /></cc:Work></rdf:RDF></metadata><defs
     id="defs26" /><switch
     id="switch20"><g
       id="g18"><path
         id="rect2"
         d="M 0,-0.215 H 60 V 60.070999 H 0 Z"
         style="fill:#0e2044" /><path
         style="fill:#ffffff"
         d="m 33.278,20.534 c 0,1.149 -0.936,2.091 -2.078,2.091 h -2.18 c -1.143,0 -2.078,-0.941 -2.078,-2.091 V 14.17 c 0,-1.143 0.936,-2.078 2.078,-2.078 h 2.18 c 1.143,0 2.078,0.935 2.078,2.078 z"
         id="XMLID_1_" /><g
         id="unpaired_1_"><path
           style="fill:#ffffff"
           id="path5"
           d="M 39.303,8.561 C 38.68,5.236 35.98,2.744 32.759,2.432 c -0.207,0 -1.559,0 -2.806,0 -1.245,0 -2.597,0 -2.803,0 -3.221,0.312 -5.818,2.804 -6.441,6.129 -0.207,0.415 -0.207,0.935 -0.416,1.35 1.351,-2.285 3.74,-3.844 6.44,-4.051 0.208,0 1.454,-0.104 3.22,-0.104 1.767,0 3.117,0 3.325,0.104 2.701,0.208 5.09,1.766 6.44,4.051 -0.103,-0.415 -0.206,-0.935 -0.415,-1.35 z" /><path
           style="fill:#ffffff"
           id="path7"
           d="m 40.654,13.235 c -1.039,-3.948 -3.74,-5.818 -7.479,-6.129 -0.209,0 -1.559,-0.104 -3.013,-0.104 v 0 0 h -0.104 -0.104 v 0 h -0.103 v 0 c -1.454,0 -2.806,0 -3.013,0.104 -3.74,0.208 -6.545,2.181 -7.583,6.129 -0.936,3.428 -1.559,8.24 -1.559,14.2 0,0.21 0.208,9.578 0.519,12.071 0.209,4.571 1.04,8.207 1.767,11.012 0.728,3.221 3.116,5.818 6.233,6.545 0.312,0.104 3.947,0.208 3.947,0.208 0,0 3.636,-0.104 3.947,-0.208 3.013,-0.831 5.402,-3.324 6.232,-6.545 0.728,-2.805 1.455,-6.336 1.767,-11.012 0.311,-2.493 0.52,-11.966 0.52,-12.071 -0.312,-5.96 -0.936,-10.772 -1.974,-14.2 z m 0.207,25.96 c -0.207,4.363 -0.935,7.895 -1.661,10.491 -0.729,3.115 -2.805,5.505 -5.61,6.337 -0.208,0.104 -3.532,0.208 -3.532,0.208 0,0 -3.324,-0.104 -3.531,-0.208 -2.806,-0.728 -4.987,-3.222 -5.61,-6.337 -0.727,-2.597 -1.35,-6.128 -1.661,-10.491 -0.208,-2.39 -0.416,-11.341 -0.416,-11.551 0,-5.752 0.623,-10.254 1.454,-13.578 0.936,-3.74 3.428,-5.61 6.857,-5.817 0.206,0 1.453,0 2.7,0 v 0 0 h 0.103 0.209 v 0 0 c 1.246,0 2.597,0 2.702,0 3.427,0.208 5.92,1.973 6.854,5.817 0.936,3.324 1.454,7.932 1.454,13.578 0.104,0.21 0,9.162 -0.312,11.551 z" /></g><g
         id="g16"><path
           id="rect10"
           d="m 27.084999,37.659 h 6.327 v 13.709 h -6.327 z"
           style="fill:none;stroke:#ffcf07;stroke-width:0.40000001;stroke-miterlimit:10" /><path
           id="rect12"
           d="m 28.214001,47.969002 h 4.077 v 2.345 h -4.077 z"
           style="fill:#ffcf07" /><path
           style="fill:none;stroke:#ffcf07;stroke-width:0.40000001;stroke-miterlimit:10"
           id="path14"
           d="m 31.788,37.659 h -3.079 v -1.702 c 0,-0.226 0.181,-0.407 0.404,-0.407 h 2.27 c 0.224,0 0.405,0.182 0.405,0.407 z"
           stroke-miterlimit="10" /></g></g></switch></svg>