<?xml version="1.0" encoding="UTF-8" standalone="no"?>
<svg
   xmlns:dc="http://purl.org/dc/elements/1.1/"
   xmlns:cc="http://creativecommons.org/ns#"
   xmlns:rdf="http://www.w3.org/1999/02/22-rdf-syntax-ns#"
   xmlns:svg="http://www.w3.org/2000/svg"
   xmlns="http://www.w3.org/2000/svg"
   id="svg22"
   xml:space="preserve"
   enable-background="new 0 0 60 60"
   viewBox="0 0 60 60"
   height="60px"
   width="60px"
   y="0px"
   x="0px"
   version="1.1"><metadata
     id="metadata28"><rdf:RDF><cc:Work
         rdf:about=""><dc:format>image/svg+xml</dc:format><dc:type
           rdf:resource="http://purl.org/dc/dcmitype/StillImage" /></cc:Work></rdf:RDF></metadata><defs
     id="defs26" /><switch
     id="switch20"><g
       id="g18"><path
         id="rect2"
         d="M 0,0 H 60 V 60 H 0 Z"
         style="fill:#171e43" /><path
         style="fill:#ffffff"
         d="m 33.477,20.455 c 0,1.149 -0.936,2.091 -2.078,2.091 h -2.181 c -1.143,0 -2.078,-0.941 -2.078,-2.091 v -6.364 c 0,-1.143 0.935,-2.078 2.078,-2.078 h 2.181 c 1.143,0 2.078,0.935 2.078,2.078 z"
         id="XMLID_2_" /><g
         id="unpaired"><path
           style="fill:#ffffff"
           id="path5"
           d="M 39.501,8.481 C 38.878,5.156 36.178,2.664 32.957,2.352 c -0.207,0 -1.559,0 -2.806,0 -1.245,0 -2.597,0 -2.803,0 C 24.127,2.664 21.53,5.156 20.907,8.481 20.7,8.896 20.7,9.417 20.491,9.832 c 1.351,-2.285 3.741,-3.844 6.441,-4.051 0.208,0 1.455,-0.104 3.22,-0.104 1.767,0 3.117,0 3.325,0.104 2.701,0.208 5.09,1.766 6.44,4.051 C 39.813,9.417 39.71,8.896 39.501,8.481 Z" /><path
           style="fill:#ffffff"
           id="path7"
           d="m 40.853,13.156 c -1.039,-3.948 -3.74,-5.818 -7.479,-6.129 -0.209,0 -1.559,-0.104 -3.013,-0.104 v 0 0 h -0.104 -0.104 v 0 H 30.05 v 0 c -1.455,0 -2.806,0 -3.013,0.104 -3.74,0.208 -6.545,2.181 -7.583,6.129 -0.936,3.428 -1.559,8.24 -1.559,14.2 0,0.21 0.208,9.572 0.519,12.065 0.208,4.571 1.04,8.207 1.766,11.012 0.727,3.221 3.116,5.818 6.233,6.545 0.312,0.104 3.948,0.208 3.948,0.208 0,0 3.636,-0.104 3.947,-0.208 3.013,-0.831 5.402,-3.324 6.232,-6.545 0.728,-2.805 1.455,-6.336 1.767,-11.012 0.311,-2.493 0.52,-11.96 0.52,-12.065 -0.312,-5.96 -0.936,-10.773 -1.974,-14.2 z M 41.06,39.11 c -0.207,4.363 -0.935,7.895 -1.661,10.491 -0.729,3.115 -2.805,5.505 -5.61,6.337 -0.208,0.104 -3.532,0.208 -3.532,0.208 0,0 -3.324,-0.104 -3.531,-0.208 -2.805,-0.728 -4.987,-3.222 -5.61,-6.337 -0.727,-2.597 -1.35,-6.128 -1.661,-10.491 -0.208,-2.39 -0.416,-11.335 -0.416,-11.545 0,-5.752 0.623,-10.254 1.454,-13.578 0.936,-3.74 3.429,-5.61 6.857,-5.817 0.207,0 1.454,0 2.701,0 v 0 0 h 0.103 0.209 v 0 0 c 1.246,0 2.597,0 2.702,0 3.427,0.208 5.92,1.973 6.854,5.817 0.936,3.324 1.454,7.932 1.454,13.578 0.103,0.21 -0.002,9.156 -0.313,11.545 z" /></g><g
         id="g16"><path
           id="rect10"
           d="m 27.284,37.573002 h 6.327001 v 13.708 H 27.284 Z"
           style="fill:none;stroke:#e31e3a;stroke-width:0.39359999;stroke-miterlimit:10" /><path
           id="rect12"
           d="m 28.412001,49.030998 h 4.077 v 1.195 h -4.077 z"
           style="fill:#e31e3a" /><path
           style="fill:none;stroke:#e31e3a;stroke-width:0.39359999;stroke-miterlimit:10"
           id="path14"
           d="M 31.986,37.573 H 28.907 V 35.87 c 0,-0.225 0.181,-0.405 0.405,-0.405 h 2.269 c 0.224,0 0.405,0.181 0.405,0.405 z"
           stroke-miterlimit="10" /></g></g></switch></svg>