<?xml version="1.0" encoding="UTF-8" standalone="no"?>
<svg
   xmlns:dc="http://purl.org/dc/elements/1.1/"
   xmlns:cc="http://creativecommons.org/ns#"
   xmlns:rdf="http://www.w3.org/1999/02/22-rdf-syntax-ns#"
   xmlns:svg="http://www.w3.org/2000/svg"
   xmlns="http://www.w3.org/2000/svg"
   id="svg14"
   xml:space="preserve"
   enable-background="new 0 0 60 60"
   viewBox="0 0 60 60"
   height="60px"
   width="60px"
   y="0px"
   x="0px"
   version="1.1"><metadata
     id="metadata20"><rdf:RDF><cc:Work
         rdf:about=""><dc:format>image/svg+xml</dc:format><dc:type
           rdf:resource="http://purl.org/dc/dcmitype/StillImage" /></cc:Work></rdf:RDF></metadata><defs
     id="defs18" /><switch
     id="switch12"><g
       id="g10"><path
         id="rect2"
         d="M 0,0 H 60 V 60 H 0 Z"
         style="fill:#171e43" /><path
         style="opacity:0.35;fill:#b1d6e7"
         d="m 32.681,20.645 c 0,1.141 -0.935,2.075 -2.075,2.075 h -2.175 c -1.142,0 -2.075,-0.935 -2.075,-2.075 v -6.328 c 0,-1.142 0.934,-2.075 2.075,-2.075 h 2.175 c 1.141,0 2.075,0.934 2.075,2.075 z"
         id="XMLID_2_" /><g
         id="unpaired_1_"><path
           style="opacity:0.35;fill:#b1d6e7"
           id="path5"
           d="m 38.697,8.713 c -0.622,-3.32 -3.32,-5.81 -6.537,-6.121 -0.207,0 -1.555,0 -2.801,0 -1.24,0 -2.589,0 -2.796,0 -3.217,0.312 -5.811,2.801 -6.433,6.121 -0.208,0.416 -0.208,0.934 -0.416,1.35 1.35,-2.283 3.735,-3.84 6.434,-4.047 0.207,0 1.452,-0.104 3.211,-0.104 1.765,0 3.113,0 3.321,0.104 2.696,0.207 5.084,1.764 6.432,4.047 -0.104,-0.417 -0.207,-0.934 -0.415,-1.35 z" /><path
           style="opacity:0.35;fill:#b1d6e7"
           id="path7"
           d="M 40.047,13.383 C 39.008,9.44 36.312,7.571 32.576,7.26 32.369,7.26 31.019,7.157 29.567,7.157 v 0 0 h -0.104 -0.104 v 0 h -0.103 v 0 c -1.448,0 -2.798,0 -3.005,0.103 -3.735,0.209 -6.537,2.18 -7.574,6.123 -0.934,3.424 -1.557,8.195 -1.557,14.109 0,0.207 0.208,9.545 0.52,12.035 0.207,4.564 1.037,8.197 1.764,10.998 0.727,3.216 3.112,5.81 6.225,6.536 0.312,0.104 3.938,0.209 3.938,0.209 0,0 3.632,-0.105 3.942,-0.209 3.009,-0.83 5.396,-3.32 6.226,-6.536 0.726,-2.801 1.453,-6.328 1.764,-10.998 0.312,-2.49 0.519,-11.932 0.519,-12.035 -0.311,-5.914 -0.934,-10.685 -1.971,-14.109 z m 0.207,25.834 c -0.207,4.357 -0.934,7.885 -1.66,10.479 -0.727,3.112 -2.801,5.499 -5.603,6.328 -0.208,0.105 -3.527,0.208 -3.527,0.208 0,0 -3.315,-0.103 -3.523,-0.208 -2.801,-0.726 -4.979,-3.216 -5.603,-6.328 -0.727,-2.594 -1.349,-6.121 -1.66,-10.479 -0.207,-2.387 -0.415,-11.309 -0.415,-11.518 0,-5.705 0.622,-10.168 1.452,-13.487 0.934,-3.735 3.425,-5.603 6.849,-5.811 0.207,0 1.452,0 2.693,0 v 0 0 h 0.103 0.208 v 0 0 c 1.245,0 2.593,0 2.698,0 3.423,0.208 5.913,1.972 6.847,5.811 0.935,3.319 1.453,7.886 1.453,13.487 0.103,0.209 -0.001,9.131 -0.312,11.518 z" /></g></g></switch></svg>