<?xml version="1.0" encoding="UTF-8" standalone="no"?>
<svg
   xmlns:dc="http://purl.org/dc/elements/1.1/"
   xmlns:cc="http://creativecommons.org/ns#"
   xmlns:rdf="http://www.w3.org/1999/02/22-rdf-syntax-ns#"
   xmlns:svg="http://www.w3.org/2000/svg"
   xmlns="http://www.w3.org/2000/svg"
   id="svg15"
   xml:space="preserve"
   enable-background="new 0 0 60 60"
   viewBox="0 0 60 60"
   height="60px"
   width="60px"
   y="0px"
   x="0px"
   version="1.1"><metadata
     id="metadata21"><rdf:RDF><cc:Work
         rdf:about=""><dc:format>image/svg+xml</dc:format><dc:type
           rdf:resource="http://purl.org/dc/dcmitype/StillImage" /></cc:Work></rdf:RDF></metadata><defs
     id="defs19" /><switch
     id="switch13"><g
       id="g11"><path
         id="rect2"
         d="M 0,0 H 60 V 60 H 0 Z"
         style="fill:#171e43" /><path
         id="XMLID_2496_"
         d="m 25.629,39.113 h 3.107 v 7.055 l 4.67,-9.234 h -3.113 v -6.952 z"
         style="fill:#ffffff" /><path
         style="fill:#ffffff"
         d="m 32.681,20.644 c 0,1.142 -0.935,2.076 -2.075,2.076 h -2.175 c -1.142,0 -2.075,-0.934 -2.075,-2.076 v -6.328 c 0,-1.141 0.934,-2.075 2.075,-2.075 h 2.175 c 1.141,0 2.075,0.934 2.075,2.075 z"
         id="XMLID_2_" /><g
         id="unpaired"><path
           style="fill:#ffffff"
           id="path6"
           d="m 38.697,8.713 c -0.622,-3.32 -3.32,-5.81 -6.537,-6.121 -0.207,0 -1.555,0 -2.801,0 -1.24,0 -2.589,0 -2.796,0 -3.217,0.311 -5.811,2.801 -6.433,6.121 -0.208,0.416 -0.208,0.934 -0.415,1.349 1.349,-2.282 3.735,-3.839 6.433,-4.046 0.208,0 1.453,-0.104 3.211,-0.104 1.765,0 3.113,0 3.321,0.104 2.696,0.207 5.084,1.764 6.432,4.046 C 39.008,9.647 38.905,9.128 38.697,8.713 Z" /><path
           style="fill:#ffffff"
           id="path8"
           d="M 40.047,13.382 C 39.008,9.44 36.312,7.571 32.576,7.26 32.369,7.26 31.019,7.157 29.567,7.157 v 0 0 h -0.104 -0.104 v 0 h -0.103 v 0 c -1.449,0 -2.798,0 -3.005,0.103 -3.735,0.208 -6.536,2.18 -7.574,6.122 -0.934,3.424 -1.556,8.196 -1.556,14.11 0,0.208 0.208,9.545 0.519,12.035 0.208,4.564 1.038,8.197 1.764,10.998 0.727,3.216 3.113,5.81 6.226,6.536 0.311,0.104 3.938,0.209 3.938,0.209 0,0 3.632,-0.105 3.942,-0.209 3.009,-0.83 5.396,-3.32 6.226,-6.536 0.726,-2.801 1.453,-6.328 1.764,-10.998 0.312,-2.49 0.519,-11.931 0.519,-12.035 -0.312,-5.914 -0.935,-10.686 -1.972,-14.11 z m 0.207,25.835 c -0.207,4.357 -0.934,7.885 -1.66,10.479 -0.727,3.112 -2.801,5.499 -5.603,6.328 -0.208,0.105 -3.527,0.208 -3.527,0.208 0,0 -3.316,-0.103 -3.523,-0.208 C 23.14,55.298 20.961,52.808 20.338,49.696 19.612,47.102 18.99,43.575 18.678,39.217 18.47,36.83 18.263,27.908 18.263,27.7 c 0,-5.706 0.623,-10.168 1.453,-13.488 0.934,-3.735 3.424,-5.602 6.848,-5.811 0.207,0 1.452,0 2.693,0 v 0 0 h 0.103 0.208 v 0 0 c 1.245,0 2.593,0 2.698,0 3.423,0.208 5.913,1.972 6.847,5.811 0.935,3.32 1.453,7.885 1.453,13.488 0.103,0.208 -0.001,9.13 -0.312,11.517 z" /></g></g></switch></svg>