<?xml version="1.0" encoding="UTF-8" standalone="no"?>
<svg
   xmlns:dc="http://purl.org/dc/elements/1.1/"
   xmlns:cc="http://creativecommons.org/ns#"
   xmlns:rdf="http://www.w3.org/1999/02/22-rdf-syntax-ns#"
   xmlns:svg="http://www.w3.org/2000/svg"
   xmlns="http://www.w3.org/2000/svg"
   id="svg20"
   xml:space="preserve"
   enable-background="new 0 0 46 46"
   viewBox="0 0 46 46"
   height="46px"
   width="46px"
   y="0px"
   x="0px"
   version="1.1"><metadata
     id="metadata26"><rdf:RDF><cc:Work
         rdf:about=""><dc:format>image/svg+xml</dc:format><dc:type
           rdf:resource="http://purl.org/dc/dcmitype/StillImage" /></cc:Work></rdf:RDF></metadata><defs
     id="defs24" /><switch
     id="switch18"><g
       id="g16"><path
         id="rect2"
         d="m 0.5,0.5 h 45 v 45 h -45 z"
         style="fill:#0e2045;stroke:#0e2045;stroke-miterlimit:10" /><path
         id="polyline4"
         d="M 28.132,37.287 H 15.807 v -7.495 -6.474 -6.47 -6.264 h 5.135 5.033 5.139 4.212 v 6.158"
         style="fill:none;stroke:#ffffff;stroke-width:1.24979997;stroke-miterlimit:10" /><path
         id="polyline6"
         d="M 16.834,34.206 H 11.697 V 19.104 6.473 h 12.226 10.373 v 4.111"
         style="fill:none;stroke:#ffffff;stroke-width:1.24979997;stroke-miterlimit:10" /><path
         id="polygon8"
         d="m 31.521,35.026 h -2.154 l 2.258,3.291 2.261,3.183 2.259,-3.183 2.257,-3.291 H 36.35 v -5.645 h -4.829 z"
         style="fill:#ffffff" /><path
         style="fill:#ffffff"
         id="path10"
         d="m 19.093,19.211 h 2.67 c 0.415,0 0.825,0.099 1.131,0.205 0.308,0.103 0.613,0.304 0.824,0.513 0.205,0.205 0.41,0.513 0.513,0.718 0.103,0.308 0.103,0.616 0.103,0.927 0,0.411 -0.103,0.718 -0.205,1.026 -0.102,0.308 -0.312,0.513 -0.517,0.718 -0.205,0.205 -0.515,0.308 -0.818,0.415 -0.31,0.205 -0.615,0.205 -0.925,0.205 h -1.133 v 2.567 h -1.643 z m 2.565,3.389 c 0.313,0 0.52,-0.103 0.723,-0.308 0.207,-0.205 0.308,-0.415 0.308,-0.718 0,-0.312 -0.101,-0.517 -0.308,-0.722 -0.203,-0.206 -0.41,-0.308 -0.723,-0.308 H 20.735 V 22.6 Z" /><path
         style="fill:#ffffff"
         id="path12"
         d="m 25.564,19.211 h 2.771 c 0.62,0 1.133,0.099 1.545,0.205 0.511,0.103 0.925,0.41 1.234,0.718 0.306,0.308 0.616,0.718 0.819,1.128 0.205,0.517 0.308,1.03 0.308,1.645 0,0.615 -0.103,1.128 -0.308,1.646 -0.203,0.406 -0.514,0.82 -0.819,1.128 -0.31,0.308 -0.724,0.513 -1.234,0.718 C 29.367,26.6 28.853,26.6 28.335,26.6 h -2.771 z m 2.668,5.854 c 0.723,0 1.34,-0.205 1.75,-0.615 0.408,-0.414 0.613,-0.927 0.613,-1.645 0,-0.308 0,-0.615 -0.103,-0.927 -0.103,-0.304 -0.205,-0.509 -0.408,-0.718 -0.205,-0.205 -0.412,-0.308 -0.718,-0.411 -0.31,-0.103 -0.622,-0.205 -1.032,-0.205 h -1.023 v 4.542 h 0.921 z" /><path
         id="polygon14"
         d="m 35.116,20.647 v 1.645 h 2.567 v 1.441 H 35.116 V 26.6 h -1.642 v -7.389 h 4.928 v 1.436 z"
         style="fill:#ffffff" /></g></switch></svg>