<?xml version="1.0" encoding="UTF-8" standalone="no"?>
<svg
   xmlns:dc="http://purl.org/dc/elements/1.1/"
   xmlns:cc="http://creativecommons.org/ns#"
   xmlns:rdf="http://www.w3.org/1999/02/22-rdf-syntax-ns#"
   xmlns:svg="http://www.w3.org/2000/svg"
   xmlns="http://www.w3.org/2000/svg"
   id="svg14"
   xml:space="preserve"
   enable-background="new 0 0 60 60"
   viewBox="0 0 60 60"
   height="60px"
   width="60px"
   y="0px"
   x="0px"
   version="1.1"><metadata
     id="metadata20"><rdf:RDF><cc:Work
         rdf:about=""><dc:format>image/svg+xml</dc:format><dc:type
           rdf:resource="http://purl.org/dc/dcmitype/StillImage" /></cc:Work></rdf:RDF></metadata><defs
     id="defs18" /><switch
     id="switch12"><g
       id="g10"><path
         id="XMLID_11604_"
         d="M 0,0 H 60 V 60 H 0 Z"
         style="fill:#0e2045" /><g
         id="XMLID_10117_"><g
           id="XMLID_10653_"><path
             style="fill:none;stroke:#ffffff;stroke-width:1.41949999;stroke-miterlimit:10"
             d="m 28.083,53.647 h -12.12 c -4.318,0 -8.035,-3.718 -8.035,-8.037 V 14.89 c 0,-4.319 3.717,-8.28 8.035,-8.28 h 12.12 z"
             stroke-miterlimit="10"
             id="XMLID_10888_" /><path
             style="fill:none;stroke:#ffffff;stroke-width:1.41949999;stroke-miterlimit:10"
             d="M 51.521,15.849 H 49.77 C 49.407,9.132 46.054,6.61 41.959,6.61 H 30.683 v 47.038 h 11.399 c 3.972,0 7.324,0.84 7.807,-5.878 h 1.793 c 0.246,0 0.246,-0.123 0.246,-0.359 V 45.973 17.171 16.45 C 51.806,16.211 51.89,15.849 51.521,15.849 Z"
             stroke-miterlimit="10"
             id="XMLID_10680_" /><g
             id="XMLID_10658_"><path
               style="fill:none;stroke:#ffffff;stroke-width:1.41949999;stroke-miterlimit:10"
               d="m 23.884,14.17 c 0,0.96 -0.72,1.678 -1.681,1.678 h -8.277 c -0.961,0 -1.68,-0.718 -1.68,-1.678 v -0.84 c 0,-0.958 0.718,-1.678 1.68,-1.678 h 8.277 c 0.961,0 1.681,0.72 1.681,1.678 z"
               stroke-miterlimit="10"
               id="XMLID_10660_" /><path
               style="fill:#ffffff"
               d="m 15.963,14.412 c 0,0.478 -0.477,0.958 -0.956,0.958 h -0.6 c -0.481,0 -0.962,-0.48 -0.962,-0.958 V 13.81 c 0,-0.48 0.48,-0.958 0.962,-0.958 h 0.6 c 0.479,0 0.956,0.478 0.956,0.958 z"
               id="XMLID_10659_" /></g></g></g></g></switch></svg>