<?xml version="1.0" encoding="UTF-8" standalone="no"?>
<svg
   xmlns:dc="http://purl.org/dc/elements/1.1/"
   xmlns:cc="http://creativecommons.org/ns#"
   xmlns:rdf="http://www.w3.org/1999/02/22-rdf-syntax-ns#"
   xmlns:svg="http://www.w3.org/2000/svg"
   xmlns="http://www.w3.org/2000/svg"
   id="svg14"
   xml:space="preserve"
   enable-background="new 0 0 60 60"
   viewBox="0 0 60 60"
   height="60px"
   width="60px"
   y="0px"
   x="0px"
   version="1.1"><metadata
     id="metadata20"><rdf:RDF><cc:Work
         rdf:about=""><dc:format>image/svg+xml</dc:format><dc:type
           rdf:resource="http://purl.org/dc/dcmitype/StillImage" /></cc:Work></rdf:RDF></metadata><defs
     id="defs18" /><switch
     id="switch12"><g
       id="g10"><path
         id="XMLID_11604_"
         d="M 0,0 H 60 V 60 H 0 Z"
         style="fill:#0e2045" /><g
         id="XMLID_10117_"><g
           id="XMLID_10653_"><path
             style="fill:none;stroke:#425876;stroke-width:1.45430005;stroke-miterlimit:10"
             d="M 28.244,54.15 H 15.837 c -4.419,0 -8.225,-3.813 -8.225,-8.244 V 14.402 c 0,-4.429 3.806,-8.492 8.225,-8.492 h 12.406 v 48.24 z"
             stroke-miterlimit="10"
             id="XMLID_10888_" /><path
             style="fill:none;stroke:#425876;stroke-width:1.45430005;stroke-miterlimit:10"
             d="M 52.222,15.385 H 50.43 C 50.061,8.497 46.625,5.91 42.448,5.91 H 30.904 v 48.24 h 11.668 c 4.053,0 7.488,0.86 7.979,-6.028 h 1.835 c 0.252,0 0.252,-0.126 0.252,-0.368 V 46.277 16.741 16.003 C 52.514,15.757 52.6,15.385 52.222,15.385 Z"
             stroke-miterlimit="10"
             id="XMLID_10680_" /><g
             id="XMLID_10658_"><path
               style="fill:none;stroke:#425876;stroke-width:1.45430005;stroke-miterlimit:10"
               d="m 23.945,13.664 c 0,0.985 -0.736,1.721 -1.721,1.721 h -8.473 c -0.983,0 -1.719,-0.736 -1.719,-1.721 v -0.862 c 0,-0.982 0.735,-1.72 1.719,-1.72 h 8.473 c 0.984,0 1.721,0.738 1.721,1.72 z"
               stroke-miterlimit="10"
               id="XMLID_10660_" /><path
               style="fill:#425876;stroke:#425876;stroke-width:0.5;stroke-miterlimit:10"
               d="m 16.053,13.479 c 0,0.49 -0.488,0.983 -0.978,0.983 H 14.46 c -0.493,0 -0.984,-0.493 -0.984,-0.983 v -0.617 c 0,-0.493 0.491,-0.984 0.984,-0.984 h 0.614 c 0.49,0 0.978,0.491 0.978,0.984 v 0.617 z"
               stroke-miterlimit="10"
               id="XMLID_10659_" /></g></g></g></g></switch></svg>