<?xml version="1.0" encoding="UTF-8" standalone="no"?>
<svg
   xmlns:dc="http://purl.org/dc/elements/1.1/"
   xmlns:cc="http://creativecommons.org/ns#"
   xmlns:rdf="http://www.w3.org/1999/02/22-rdf-syntax-ns#"
   xmlns:svg="http://www.w3.org/2000/svg"
   xmlns="http://www.w3.org/2000/svg"
   id="svg8"
   xml:space="preserve"
   enable-background="new 0 0 15.12 15.12"
   viewBox="0 0 15.12 15.12"
   height="15.12px"
   width="15.12px"
   y="0px"
   x="0px"
   version="1.1"><metadata
     id="metadata14"><rdf:RDF><cc:Work
         rdf:about=""><dc:format>image/svg+xml</dc:format><dc:type
           rdf:resource="http://purl.org/dc/dcmitype/StillImage" /></cc:Work></rdf:RDF></metadata><defs
     id="defs12" /><switch
     id="switch6"><g
       id="g4"><path
         style="fill:#e21d38"
         id="path2"
         d="M 7.56,0 C 3.402,0 0,3.402 0,7.56 c 0,4.158 3.402,7.56 7.56,7.56 4.158,0 7.56,-3.401 7.56,-7.56 C 15.12,3.401 11.718,0 7.56,0 Z m 6.048,7.56 c 0,1.229 -0.378,2.457 -0.945,3.308 L 4.158,2.457 C 5.103,1.795 6.332,1.512 7.56,1.512 c 3.308,0 6.048,2.74 6.048,6.048 z m -12.096,0 c 0,-1.323 0.472,-2.646 1.229,-3.686 l 8.505,8.505 C 10.3,13.23 8.978,13.608 7.56,13.608 4.252,13.608 1.512,10.868 1.512,7.56 Z" /></g></switch></svg>