<?xml version="1.0" encoding="UTF-8" standalone="no"?>
<svg
   xmlns:dc="http://purl.org/dc/elements/1.1/"
   xmlns:cc="http://creativecommons.org/ns#"
   xmlns:rdf="http://www.w3.org/1999/02/22-rdf-syntax-ns#"
   xmlns:svg="http://www.w3.org/2000/svg"
   xmlns="http://www.w3.org/2000/svg"
   id="svg27"
   xml:space="preserve"
   enable-background="new 0 0 60.006 60"
   viewBox="0 0 60.006 60"
   height="60px"
   width="60.006px"
   y="0px"
   x="0px"
   version="1.1"><metadata
     id="metadata33"><rdf:RDF><cc:Work
         rdf:about=""><dc:format>image/svg+xml</dc:format><dc:type
           rdf:resource="http://purl.org/dc/dcmitype/StillImage" /></cc:Work></rdf:RDF></metadata><defs
     id="defs31" /><switch
     id="switch25"><g
       id="g23"><path
         id="rect2"
         d="M 0,0 H 60.006001 V 60 H 0 Z"
         style="fill:#171e43" /><path
         style="fill:none;stroke:#ffffff;stroke-width:1.25;stroke-miterlimit:10"
         d="m 55.375,43.528 c 0,1.521 -1.234,2.728 -2.727,2.728 H 7.441 c -1.521,0 -2.727,-1.234 -2.727,-2.728 V 11.726 c 0,-1.521 1.233,-2.727 2.727,-2.727 h 45.237 c 1.521,0 2.727,1.234 2.727,2.727 z"
         stroke-miterlimit="10"
         id="XMLID_1402_" /><path
         id="XMLID_1401_"
         d="M 8.2,13.275 H 51.934 L 51.932,39.567 H 8.245 Z"
         style="fill:none;stroke:#ffffff;stroke-width:1.25;stroke-miterlimit:10" /><path
         id="XMLID_1400_"
         d="m 29.457001,42.726002 h 1.205"
         style="fill:none;stroke:#ffffff;stroke-width:1.25;stroke-miterlimit:10" /><path
         id="rect7"
         d="M 34.118999,30.322001 H 46.598 v 5.747 H 34.118999 Z"
         style="fill:none;stroke:#ffffff;stroke-width:0.69999999;stroke-miterlimit:10" /><path
         id="rect9"
         d="m 46.598999,31.711 h 1.583 v 2.973 h -1.583 z"
         style="fill:none;stroke:#ffffff;stroke-width:0.69999999;stroke-miterlimit:10" /><path
         id="polygon11"
         d="m 43.202,31.395 v 3.608 h -7.963 v -3.615 z"
         style="fill:#ffffff" /><g
         id="g21"><path
           style="fill:#ffffff"
           id="path13"
           d="m 15.201,35.603 h -1.253 l -0.935,-1.716 -0.995,1.716 h -1.199 l 1.591,-2.57 -1.504,-2.454 h 1.229 l 0.877,1.623 0.898,-1.623 h 1.19 l -1.504,2.413 z" /><path
           style="fill:#ffffff"
           id="path15"
           d="m 19.699,35.603 h -1.253 l -0.935,-1.716 -0.995,1.716 h -1.199 l 1.591,-2.57 -1.504,-2.454 h 1.229 l 0.877,1.623 0.898,-1.623 h 1.189 l -1.504,2.413 z" /><path
           style="fill:#ffffff"
           id="path17"
           d="m 24.198,35.603 h -1.253 l -0.935,-1.716 -0.995,1.716 h -1.199 l 1.591,-2.57 -1.504,-2.454 h 1.229 l 0.877,1.623 0.898,-1.623 h 1.189 l -1.504,2.413 z" /><path
           style="fill:#ffffff"
           id="path19"
           d="m 24.529,31.908 c 0,-0.178 0.033,-0.345 0.099,-0.5 0.066,-0.154 0.155,-0.289 0.268,-0.404 0.113,-0.115 0.245,-0.206 0.397,-0.272 0.152,-0.066 0.313,-0.099 0.486,-0.099 0.169,0 0.33,0.034 0.482,0.101 0.152,0.067 0.285,0.159 0.399,0.273 0.114,0.115 0.204,0.251 0.27,0.405 0.066,0.155 0.099,0.32 0.099,0.496 0,0.178 -0.033,0.343 -0.099,0.497 -0.066,0.153 -0.156,0.288 -0.27,0.403 -0.114,0.115 -0.247,0.205 -0.399,0.271 -0.152,0.066 -0.313,0.1 -0.482,0.1 -0.172,0 -0.334,-0.033 -0.486,-0.098 -0.152,-0.065 -0.284,-0.155 -0.397,-0.271 -0.113,-0.116 -0.202,-0.25 -0.268,-0.405 -0.066,-0.153 -0.099,-0.319 -0.099,-0.497 z m 0.707,0 c 0,0.077 0.015,0.149 0.043,0.217 0.029,0.067 0.068,0.125 0.118,0.174 0.049,0.049 0.106,0.088 0.172,0.116 0.066,0.028 0.136,0.043 0.209,0.043 0.073,0 0.143,-0.015 0.209,-0.043 0.066,-0.028 0.124,-0.067 0.173,-0.116 0.049,-0.049 0.088,-0.106 0.117,-0.174 0.029,-0.067 0.043,-0.14 0.043,-0.217 0,-0.078 -0.015,-0.15 -0.043,-0.218 -0.029,-0.067 -0.068,-0.126 -0.117,-0.176 -0.049,-0.05 -0.107,-0.09 -0.173,-0.118 -0.066,-0.028 -0.135,-0.043 -0.209,-0.043 -0.074,0 -0.144,0.015 -0.209,0.043 -0.065,0.028 -0.124,0.068 -0.172,0.118 -0.049,0.05 -0.088,0.108 -0.118,0.176 -0.029,0.068 -0.043,0.14 -0.043,0.218 z m 1.055,3.828 h -0.506 l 2.73,-5.104 h 0.509 z m 1.491,-1.306 c 0,-0.178 0.033,-0.344 0.099,-0.498 0.066,-0.155 0.155,-0.29 0.268,-0.405 0.113,-0.115 0.245,-0.206 0.397,-0.272 0.152,-0.065 0.313,-0.099 0.486,-0.099 0.169,0 0.33,0.033 0.48,0.101 0.15,0.068 0.283,0.158 0.397,0.273 0.114,0.115 0.204,0.25 0.27,0.405 0.066,0.155 0.099,0.32 0.099,0.495 0,0.178 -0.033,0.345 -0.099,0.5 -0.066,0.154 -0.156,0.289 -0.27,0.404 -0.114,0.115 -0.246,0.206 -0.397,0.271 -0.151,0.066 -0.311,0.1 -0.48,0.1 -0.172,0 -0.334,-0.033 -0.486,-0.1 -0.152,-0.065 -0.284,-0.155 -0.397,-0.27 -0.113,-0.115 -0.202,-0.249 -0.268,-0.405 -0.066,-0.156 -0.099,-0.323 -0.099,-0.5 z m 0.706,0 c 0,0.078 0.015,0.15 0.044,0.218 0.029,0.067 0.068,0.126 0.117,0.176 0.049,0.05 0.106,0.09 0.172,0.118 0.066,0.028 0.136,0.043 0.209,0.043 0.073,0 0.143,-0.015 0.209,-0.043 0.066,-0.028 0.123,-0.068 0.171,-0.118 0.048,-0.05 0.086,-0.108 0.116,-0.176 0.029,-0.067 0.043,-0.14 0.043,-0.218 0,-0.077 -0.015,-0.149 -0.043,-0.217 -0.029,-0.067 -0.067,-0.126 -0.116,-0.176 -0.048,-0.05 -0.105,-0.09 -0.171,-0.118 -0.066,-0.028 -0.135,-0.042 -0.209,-0.042 -0.074,0 -0.144,0.014 -0.209,0.042 -0.065,0.028 -0.124,0.068 -0.172,0.118 -0.049,0.05 -0.088,0.108 -0.117,0.176 -0.029,0.067 -0.044,0.14 -0.044,0.217 z" /></g></g></switch></svg>