<?xml version="1.0" encoding="UTF-8" standalone="no"?>
<svg
   xmlns:dc="http://purl.org/dc/elements/1.1/"
   xmlns:cc="http://creativecommons.org/ns#"
   xmlns:rdf="http://www.w3.org/1999/02/22-rdf-syntax-ns#"
   xmlns:svg="http://www.w3.org/2000/svg"
   xmlns="http://www.w3.org/2000/svg"
   id="svg26"
   xml:space="preserve"
   enable-background="new 0 0 100 24.436"
   viewBox="0 0 100 24.436"
   height="24.436px"
   width="100px"
   y="0px"
   x="0px"
   version="1.1"><metadata
     id="metadata32"><rdf:RDF><cc:Work
         rdf:about=""><dc:format>image/svg+xml</dc:format><dc:type
           rdf:resource="http://purl.org/dc/dcmitype/StillImage" /></cc:Work></rdf:RDF></metadata><defs
     id="defs30" /><switch
     id="switch24"><g
       id="g22"><g
         id="g20"><g
           id="g8"><path
             id="path2"
             d="m 13.478,20.697 c -0.402,0.058 -0.829,0.084 -1.261,0.084 -4.708,0 -8.536,-3.826 -8.536,-8.563 0,-4.708 3.827,-8.563 8.536,-8.563 0.433,0 0.825,0.028 1.261,0.084 V 0.058 C 13.076,0 12.649,0 12.216,0 5.48,0 0,5.48 0,12.218 c 0,6.738 5.48,12.218 12.216,12.218 0.433,0 0.825,-0.03 1.261,-0.059 v -3.68 z" /><path
             id="path4"
             d="m 34.226,20.697 c -0.401,0.058 -0.828,0.084 -1.255,0.084 -4.711,0 -8.538,-3.826 -8.538,-8.563 0,-4.708 3.827,-8.563 8.538,-8.563 0.427,0 0.825,0.028 1.255,0.084 V 0.058 C 33.824,0 33.397,0 32.971,0 26.236,0 20.752,5.48 20.752,12.218 c 0,6.738 5.483,12.218 12.219,12.218 0.427,0 0.825,-0.03 1.255,-0.059 z" /><path
             id="rect6"
             d="M 21.353001,10.421 H 31.116 v 3.653 h -9.762999 z"
             style="" /></g><g
           id="g18"><path
             id="path10"
             d="m 37.711,12.248 c 0,-2.828 0.289,-5.11 0.884,-6.825 0.57,-1.712 1.454,-3.055 2.601,-3.997 1.137,-0.94 2.594,-1.396 4.335,-1.396 1.289,0 2.397,0.258 3.369,0.769 0.968,0.514 1.769,1.256 2.397,2.228 0.632,0.968 1.118,2.167 1.482,3.568 0.377,1.398 0.545,3.282 0.545,5.652 0,2.794 -0.286,5.08 -0.856,6.793 -0.573,1.714 -1.43,3.055 -2.601,3.999 -1.136,0.937 -2.594,1.396 -4.337,1.396 -2.308,0 -4.107,-0.83 -5.425,-2.485 -1.594,-1.971 -2.394,-5.221 -2.394,-9.702 z m 3.026,0 c 0,3.939 0.458,6.533 1.367,7.847 0.915,1.314 2.059,1.943 3.397,1.943 1.345,0 2.484,-0.657 3.397,-1.969 0.912,-1.313 1.373,-3.911 1.373,-7.821 0,-3.939 -0.461,-6.537 -1.373,-7.851 -0.913,-1.286 -2.053,-1.943 -3.423,-1.943 -1.342,0 -2.426,0.573 -3.226,1.714 -0.998,1.454 -1.512,4.14 -1.512,8.08 z" /><path
             id="path12"
             d="M 63.915,24.034 H 60.976 V 5.339 C 60.262,6.023 59.35,6.68 58.205,7.365 57.065,8.05 56.037,8.534 55.122,8.878 V 6.052 c 1.656,-0.77 3.083,-1.711 4.31,-2.796 1.23,-1.087 2.09,-2.172 2.604,-3.198 h 1.881 v 23.976 z" /><path
             id="path14"
             d="m 82.017,21.209 v 2.824 h -15.82 c -0.027,-0.713 0.088,-1.395 0.346,-2.025 0.398,-1.084 1.056,-2.14 1.946,-3.167 0.878,-1.057 2.161,-2.256 3.846,-3.626 2.598,-2.141 4.372,-3.825 5.281,-5.054 0.919,-1.255 1.37,-2.426 1.37,-3.539 0,-1.169 -0.426,-2.141 -1.255,-2.94 -0.828,-0.8 -1.912,-1.197 -3.254,-1.197 -1.43,0 -2.541,0.427 -3.397,1.283 -0.856,0.856 -1.279,2.027 -1.279,3.513 L 66.771,6.965 C 66.97,4.712 67.74,2.998 69.11,1.827 c 1.342,-1.169 3.167,-1.769 5.424,-1.769 2.283,0 4.111,0.627 5.45,1.912 1.345,1.286 2.005,2.857 2.005,4.741 0,0.97 -0.205,1.881 -0.604,2.823 -0.398,0.914 -1.028,1.887 -1.938,2.913 -0.912,1.027 -2.429,2.427 -4.54,4.196 -1.769,1.485 -2.887,2.485 -3.4,2.998 -0.514,0.511 -0.912,1.057 -1.224,1.599 h 11.733 v -0.031 z" /><path
             id="path16"
             d="m 84.324,17.727 2.939,-0.399 c 0.343,1.655 0.916,2.856 1.716,3.597 0.797,0.743 1.797,1.113 2.968,1.113 1.37,0 2.541,-0.484 3.513,-1.424 0.94,-0.973 1.426,-2.143 1.426,-3.572 0,-1.341 -0.427,-2.454 -1.311,-3.34 -0.891,-0.886 -2.003,-1.314 -3.369,-1.314 -0.545,0 -1.255,0.117 -2.08,0.316 l 0.311,-2.571 c 0.196,0.028 0.34,0.028 0.483,0.028 1.258,0 2.372,-0.313 3.366,-0.97 0.999,-0.657 1.513,-1.653 1.513,-3.025 0,-1.083 -0.367,-1.971 -1.083,-2.683 -0.744,-0.713 -1.654,-1.056 -2.824,-1.056 -1.146,0 -2.084,0.369 -2.856,1.084 -0.769,0.713 -1.255,1.796 -1.454,3.226 L 84.643,6.221 C 85.014,4.251 85.814,2.74 87.094,1.658 88.383,0.571 89.949,0.03 91.83,0.03 c 1.313,0 2.519,0.285 3.603,0.828 1.087,0.568 1.94,1.311 2.51,2.283 0.573,0.968 0.885,1.996 0.885,3.081 0,1.031 -0.283,1.971 -0.828,2.829 -0.539,0.855 -1.367,1.51 -2.454,2.024 1.43,0.315 2.516,1.001 3.282,2.029 0.772,1.025 1.174,2.313 1.174,3.852 0,2.085 -0.772,3.854 -2.286,5.313 -1.513,1.453 -3.456,2.167 -5.767,2.167 -2.083,0 -3.855,-0.626 -5.223,-1.886 -1.399,-1.2 -2.2,-2.826 -2.402,-4.823 z" /></g></g></g></switch></svg>