<?xml version="1.0" encoding="UTF-8" standalone="no"?>
<svg
   xmlns:dc="http://purl.org/dc/elements/1.1/"
   xmlns:cc="http://creativecommons.org/ns#"
   xmlns:rdf="http://www.w3.org/1999/02/22-rdf-syntax-ns#"
   xmlns:svg="http://www.w3.org/2000/svg"
   xmlns="http://www.w3.org/2000/svg"
   id="svg34"
   xml:space="preserve"
   enable-background="new 0 0 16.942 15.142"
   viewBox="0 0 16.942 15.142"
   height="15.142px"
   width="16.942px"
   y="0px"
   x="0px"
   version="1.1"><metadata
     id="metadata40"><rdf:RDF><cc:Work
         rdf:about=""><dc:format>image/svg+xml</dc:format><dc:type
           rdf:resource="http://purl.org/dc/dcmitype/StillImage" /></cc:Work></rdf:RDF></metadata><defs
     id="defs38" /><switch
     id="switch32"><g
       id="g30"><g
         id="g26"><g
           id="g4"><path
             id="path2"
             d="m 10.001,9.096 h -0.9 V 7.361 C 9.101,6.994 9.082,6.757 9.043,6.649 9.005,6.541 8.942,6.457 8.856,6.397 8.769,6.337 8.666,6.307 8.543,6.307 8.387,6.307 8.247,6.35 8.124,6.435 8.001,6.521 7.916,6.634 7.87,6.775 7.824,6.916 7.802,7.176 7.802,7.556 v 1.54 h -0.9 v -3.4 h 0.836 v 0.5 C 8.035,5.812 8.408,5.62 8.858,5.62 9.057,5.62 9.238,5.656 9.403,5.727 9.566,5.798 9.69,5.89 9.775,6 c 0.084,0.111 0.143,0.237 0.176,0.378 0.033,0.141 0.05,0.342 0.05,0.605 z" /></g><g
           id="g24"><g
             id="g22"><path
               id="polyline6"
               d="M 13.25,7.313 13.443,7.507 13.25,7.7"
               style="fill:none;stroke:#595959;stroke-width:0.54640001;stroke-miterlimit:10" /><path
               id="line8"
               d="M 12.894,8.0570002 8.7980003,12.16"
               style="fill:none;stroke:#595959;stroke-width:0.54640001;stroke-miterlimit:10;stroke-dasharray:0.5041, 0.5041" /><path
               id="polyline10"
               d="M 8.62,12.338 8.427,12.531 8.233,12.338"
               style="fill:none;stroke:#595959;stroke-width:0.54640001;stroke-miterlimit:10" /><path
               id="line12"
               d="M 7.8769999,11.981 3.78,7.8779998"
               style="fill:none;stroke:#595959;stroke-width:0.54640001;stroke-miterlimit:10;stroke-dasharray:0.5041, 0.5041" /><path
               id="polyline14"
               d="M 3.603,7.7 3.409,7.507 3.603,7.313"
               style="fill:none;stroke:#595959;stroke-width:0.54640001;stroke-miterlimit:10" /><path
               id="line16"
               d="M 3.9590001,6.9580002 8.0559998,2.8610001"
               style="fill:none;stroke:#595959;stroke-width:0.54640001;stroke-miterlimit:10;stroke-dasharray:0.5038, 0.5038" /><path
               id="polyline18"
               d="M 8.233,2.683 8.427,2.49 8.62,2.683"
               style="fill:none;stroke:#595959;stroke-width:0.54640001;stroke-miterlimit:10" /><path
               id="line20"
               d="M 8.9770002,3.039 13.072,7.1360002"
               style="fill:none;stroke:#595959;stroke-width:0.54640001;stroke-miterlimit:10;stroke-dasharray:0.5038, 0.5038" /></g></g></g><path
         id="rect28"
         d="M 0,0 H 16.941999 V 15.142 H 0 Z"
         style="fill:none" /></g></switch></svg>