<?xml version="1.0" encoding="UTF-8" standalone="no"?>
<svg
   xmlns:dc="http://purl.org/dc/elements/1.1/"
   xmlns:cc="http://creativecommons.org/ns#"
   xmlns:rdf="http://www.w3.org/1999/02/22-rdf-syntax-ns#"
   xmlns:svg="http://www.w3.org/2000/svg"
   xmlns="http://www.w3.org/2000/svg"
   id="svg10"
   xml:space="preserve"
   enable-background="new 0 0 16.942 15.142"
   viewBox="0 0 16.942 15.142"
   height="15.142px"
   width="16.942px"
   y="0px"
   x="0px"
   version="1.1"><metadata
     id="metadata16"><rdf:RDF><cc:Work
         rdf:about=""><dc:format>image/svg+xml</dc:format><dc:type
           rdf:resource="http://purl.org/dc/dcmitype/StillImage" /></cc:Work></rdf:RDF></metadata><defs
     id="defs14" /><switch
     id="switch8"><g
       id="g6"><path
         id="rect2"
         d="M 0,0 H 16.941999 V 15.142 H 0 Z"
         style="fill:none" /><path
         style="fill:#e11e39"
         id="path4"
         d="m 8.49,2.925 c -2.495,0 -4.536,2.041 -4.536,4.536 0,2.494 2.041,4.535 4.536,4.535 2.495,0 4.536,-2.041 4.536,-4.535 C 13.025,4.966 10.984,2.925 8.49,2.925 Z m 3.628,4.536 c 0,0.737 -0.227,1.474 -0.567,1.984 L 6.449,4.399 C 7.015,4.002 7.752,3.833 8.49,3.833 c 1.984,0 3.628,1.644 3.628,3.628 z m -7.257,0 C 4.861,6.667 5.144,5.873 5.598,5.25 L 10.7,10.352 C 10.134,10.864 9.34,11.09 8.49,11.09 6.505,11.09 4.861,9.445 4.861,7.461 Z" /></g></switch></svg>