<?xml version="1.0" encoding="UTF-8" standalone="no"?>
<svg
   xmlns:dc="http://purl.org/dc/elements/1.1/"
   xmlns:cc="http://creativecommons.org/ns#"
   xmlns:rdf="http://www.w3.org/1999/02/22-rdf-syntax-ns#"
   xmlns:svg="http://www.w3.org/2000/svg"
   xmlns="http://www.w3.org/2000/svg"
   id="svg55"
   xml:space="preserve"
   enable-background="new 0 0 60.006 60"
   viewBox="0 0 60.006 60"
   height="60px"
   width="60.006px"
   y="0px"
   x="0px"
   version="1.1"><metadata
     id="metadata61"><rdf:RDF><cc:Work
         rdf:about=""><dc:format>image/svg+xml</dc:format><dc:type
           rdf:resource="http://purl.org/dc/dcmitype/StillImage" /></cc:Work></rdf:RDF></metadata><defs
     id="defs59" /><switch
     id="switch53"><g
       id="g51"><path
         id="rect2"
         d="M 0,0 H 60.006001 V 60 H 0 Z"
         style="fill:#171e43" /><g
         id="g12"><path
           style="fill:#ffffff"
           id="path4"
           d="m 15.201,35.604 h -1.253 l -0.935,-1.717 -0.995,1.717 h -1.199 l 1.591,-2.57 -1.504,-2.454 h 1.229 l 0.877,1.623 0.898,-1.623 h 1.19 l -1.504,2.413 z" /><path
           style="fill:#ffffff"
           id="path6"
           d="m 19.699,35.604 h -1.253 l -0.935,-1.717 -0.995,1.717 h -1.199 l 1.591,-2.57 -1.504,-2.454 h 1.229 l 0.877,1.623 0.898,-1.623 h 1.189 l -1.504,2.413 z" /><path
           style="fill:#ffffff"
           id="path8"
           d="m 24.198,35.604 h -1.253 l -0.935,-1.717 -0.995,1.717 h -1.199 l 1.591,-2.57 -1.504,-2.454 h 1.229 l 0.877,1.623 0.898,-1.623 h 1.189 l -1.504,2.413 z" /><path
           style="fill:#ffffff"
           id="path10"
           d="m 24.529,31.908 c 0,-0.178 0.033,-0.346 0.099,-0.5 0.066,-0.154 0.155,-0.289 0.268,-0.404 0.113,-0.115 0.245,-0.206 0.397,-0.271 0.152,-0.066 0.313,-0.1 0.486,-0.1 0.169,0 0.33,0.034 0.482,0.102 0.152,0.066 0.285,0.158 0.399,0.272 0.114,0.115 0.204,0.251 0.27,0.405 0.066,0.154 0.099,0.32 0.099,0.496 0,0.178 -0.033,0.343 -0.099,0.497 -0.066,0.153 -0.156,0.288 -0.27,0.403 -0.114,0.114 -0.247,0.205 -0.399,0.271 -0.152,0.065 -0.313,0.101 -0.482,0.101 -0.172,0 -0.334,-0.033 -0.486,-0.099 -0.152,-0.066 -0.284,-0.155 -0.397,-0.271 -0.113,-0.117 -0.202,-0.25 -0.268,-0.405 -0.066,-0.153 -0.099,-0.319 -0.099,-0.497 z m 0.707,0 c 0,0.076 0.015,0.148 0.043,0.217 0.029,0.066 0.068,0.125 0.118,0.174 0.049,0.049 0.106,0.088 0.172,0.116 0.066,0.028 0.136,0.043 0.209,0.043 0.073,0 0.143,-0.015 0.209,-0.043 0.066,-0.028 0.124,-0.067 0.173,-0.116 0.049,-0.049 0.088,-0.105 0.117,-0.174 0.029,-0.066 0.043,-0.141 0.043,-0.217 0,-0.078 -0.015,-0.15 -0.043,-0.219 -0.029,-0.066 -0.068,-0.125 -0.117,-0.176 -0.049,-0.05 -0.107,-0.09 -0.173,-0.117 -0.066,-0.028 -0.135,-0.043 -0.209,-0.043 -0.074,0 -0.144,0.015 -0.209,0.043 -0.065,0.027 -0.124,0.067 -0.172,0.117 -0.049,0.051 -0.088,0.108 -0.118,0.176 -0.029,0.069 -0.043,0.141 -0.043,0.219 z m 1.055,3.828 h -0.506 l 2.73,-5.104 h 0.509 z m 1.491,-1.306 c 0,-0.178 0.033,-0.344 0.099,-0.498 0.066,-0.154 0.155,-0.289 0.268,-0.404 0.113,-0.115 0.245,-0.207 0.397,-0.272 0.152,-0.065 0.313,-0.099 0.486,-0.099 0.169,0 0.33,0.033 0.48,0.101 0.15,0.068 0.283,0.158 0.397,0.273 0.114,0.114 0.204,0.25 0.27,0.405 0.066,0.154 0.099,0.319 0.099,0.494 0,0.178 -0.033,0.346 -0.099,0.5 -0.066,0.154 -0.156,0.289 -0.27,0.404 -0.114,0.115 -0.246,0.206 -0.397,0.271 -0.151,0.065 -0.311,0.1 -0.48,0.1 -0.172,0 -0.334,-0.033 -0.486,-0.1 C 28.394,35.54 28.262,35.45 28.149,35.334 28.036,35.219 27.947,35.085 27.881,34.929 27.815,34.773 27.782,34.607 27.782,34.43 Z m 0.706,0 c 0,0.078 0.015,0.15 0.044,0.219 0.029,0.066 0.068,0.125 0.117,0.176 0.049,0.05 0.106,0.09 0.172,0.117 0.066,0.028 0.136,0.043 0.209,0.043 0.073,0 0.143,-0.015 0.209,-0.043 0.066,-0.027 0.123,-0.067 0.171,-0.117 0.048,-0.051 0.086,-0.108 0.116,-0.176 0.029,-0.067 0.043,-0.141 0.043,-0.219 0,-0.076 -0.015,-0.148 -0.043,-0.217 -0.029,-0.066 -0.067,-0.126 -0.116,-0.176 -0.048,-0.051 -0.105,-0.09 -0.171,-0.118 -0.066,-0.028 -0.135,-0.042 -0.209,-0.042 -0.074,0 -0.144,0.014 -0.209,0.042 -0.065,0.028 -0.124,0.067 -0.172,0.118 -0.049,0.05 -0.088,0.107 -0.117,0.176 -0.029,0.067 -0.044,0.141 -0.044,0.217 z" /></g><g
         id="g49"><path
           style="fill:none;stroke:#ffffff;stroke-width:1.25;stroke-miterlimit:10"
           d="m 55.312,43.434 c 0,1.562 -1.194,2.754 -2.756,2.754 H 7.469 c -1.562,0 -2.755,-1.192 -2.755,-2.754 v -31.68 c 0,-1.562 1.193,-2.755 2.755,-2.755 h 45.178 c 1.562,0 2.756,1.193 2.756,2.755 z"
           stroke-miterlimit="10"
           id="XMLID_9393_" /><path
           id="XMLID_9392_"
           d="m 51.729,13.222 0.092,26.262 H 8.204 L 8.112,13.222 Z"
           style="fill:none;stroke:#ffffff;stroke-width:1.25;stroke-miterlimit:10" /><path
           id="XMLID_9381_"
           d="m 29.416,42.606998 h 1.192"
           style="fill:none;stroke:#ffffff;stroke-width:1.25;stroke-miterlimit:10" /><path
           id="rect17"
           d="m 35.016998,31.037001 h 8.356 v 4.039 h -8.356 z"
           style="fill:#ffffff" /><g
           id="g23"><path
             id="rect19"
             d="m 34.189999,30.209999 h 12.488 v 5.694 h -12.488 z"
             style="fill:none;stroke:#ffffff;stroke-width:0.69999999;stroke-miterlimit:10" /><path
             id="polyline21"
             d="m 46.771,31.588 h 0.734 0.827 v 1.469 1.468 h -0.827 -0.734"
             style="fill:none;stroke:#ffffff;stroke-width:0.69999999;stroke-miterlimit:10" /></g><g
           id="g39"><g
             id="g31"><path
               id="circle25"
               d="m 41.537001,22.222 a 1.102,1.102 0 0 1 -1.102,1.102 1.102,1.102 0 0 1 -1.102,-1.102 1.102,1.102 0 0 1 1.102,-1.102 1.102,1.102 0 0 1 1.102,1.102 z"
               style="fill:#b2b4b4" /><path
               style="fill:#b2b4b4"
               id="path27"
               d="m 43.282,25.251 c 0.367,-0.367 0.734,-0.918 0.918,-1.377 0.184,-0.551 0.367,-1.103 0.367,-1.653 0,-0.643 -0.092,-1.193 -0.367,-1.744 -0.184,-0.551 -0.551,-1.103 -1.01,-1.47 l -1.287,1.378 c 0.552,0.459 0.734,1.102 0.734,1.836 0,0.643 -0.275,1.378 -0.734,1.837 z" /><path
               style="fill:#b2b4b4"
               id="path29"
               d="m 47.688,22.221 c 0,-1.01 -0.184,-1.928 -0.643,-2.938 -0.367,-0.918 -0.919,-1.652 -1.652,-2.387 l -1.377,1.377 c 0.551,0.551 0.918,1.102 1.102,1.745 0.275,0.643 0.459,1.377 0.459,2.203 0,1.47 -0.643,2.847 -1.652,3.949 l 1.377,1.377 c 0.643,-0.643 1.194,-1.469 1.563,-2.388 0.549,-1.009 0.732,-1.927 0.823,-2.938 z" /></g><g
             id="g37"><path
               style="fill:#b2b4b4"
               id="path33"
               d="m 37.588,25.251 c -0.366,-0.367 -0.735,-0.918 -0.919,-1.377 -0.184,-0.459 -0.367,-1.103 -0.367,-1.653 0,-0.643 0.092,-1.193 0.367,-1.744 0.275,-0.551 0.553,-1.103 1.012,-1.47 l 1.284,1.378 c -0.551,0.459 -0.733,1.102 -0.733,1.836 0,0.643 0.274,1.378 0.733,1.837 z" /><path
               style="fill:#b2b4b4"
               id="path35"
               d="m 33.181,22.221 c 0,-1.01 0.184,-1.928 0.643,-2.938 0.367,-0.918 0.919,-1.652 1.652,-2.387 l 1.377,1.377 c -0.551,0.551 -0.918,1.102 -1.102,1.745 -0.275,0.643 -0.459,1.377 -0.459,2.203 0,1.47 0.643,2.847 1.652,3.949 l -1.377,1.377 C 34.923,26.904 34.374,26.078 34.005,25.159 33.364,24.15 33.272,23.232 33.181,22.221 Z" /></g></g><g
           id="g47"><path
             id="circle41"
             d="m 34.65,20.660999 a 3.122,3.122 0 0 1 -3.122,3.122 3.122,3.122 0 0 1 -3.122,-3.122 3.122,3.122 0 0 1 3.122,-3.122 3.122,3.122 0 0 1 3.122,3.122 z"
             style="fill:#e21d38" /><g
             id="XMLID_9323_"><g
               id="XMLID_9326_"><path
                 id="XMLID_9380_"
                 d="m 32.813,19.375 -2.48,2.570999"
                 style="fill:none;stroke:#f3f3f3;stroke-width:0.75;stroke-linecap:round;stroke-miterlimit:10" /><path
                 id="XMLID_9329_"
                 d="m 30.333,19.375 2.48,2.570999"
                 style="fill:none;stroke:#f3f3f3;stroke-width:0.75;stroke-linecap:round;stroke-miterlimit:10" /></g></g></g></g></g></switch></svg>