<?xml version="1.0" encoding="UTF-8" standalone="no"?>
<svg
   xmlns:dc="http://purl.org/dc/elements/1.1/"
   xmlns:cc="http://creativecommons.org/ns#"
   xmlns:rdf="http://www.w3.org/1999/02/22-rdf-syntax-ns#"
   xmlns:svg="http://www.w3.org/2000/svg"
   xmlns="http://www.w3.org/2000/svg"
   id="svg16"
   xml:space="preserve"
   enable-background="new 0 0 29.474 29.546"
   viewBox="0 0 29.474 29.546"
   height="29.546px"
   width="29.474px"
   y="0px"
   x="0px"
   version="1.1"><metadata
     id="metadata22"><rdf:RDF><cc:Work
         rdf:about=""><dc:format>image/svg+xml</dc:format><dc:type
           rdf:resource="http://purl.org/dc/dcmitype/StillImage" /></cc:Work></rdf:RDF></metadata><defs
     id="defs20" /><switch
     id="switch14"><g
       id="g12"><path
         id="rect2"
         d="M 0,0.071 H 29.474001 V 29.546 H 0 Z"
         style="fill:#ffffff" /><g
         id="g6"><path
           style="fill:#f05423"
           id="path4"
           d="m 0.308,23.481 2.449,-0.245 c 0.123,0.856 0.49,1.346 0.858,1.836 0.368,0.49 1.102,0.613 1.837,0.613 0.856,0 1.346,-0.123 1.836,-0.49 C 7.656,24.828 7.9,24.46 7.9,23.971 7.9,23.726 7.777,23.481 7.656,23.237 7.411,22.992 7.043,22.869 6.676,22.624 6.431,22.502 5.697,22.379 4.717,22.134 3.37,21.767 2.513,21.4 1.901,20.909 1.166,20.174 0.798,19.44 0.798,18.46 c 0,-0.612 0.123,-1.224 0.49,-1.714 0.367,-0.49 0.857,-0.98 1.591,-1.225 0.735,-0.245 1.47,-0.367 2.45,-0.367 1.592,0 2.694,0.367 3.429,0.979 0.734,0.612 1.224,1.592 1.224,2.694 L 7.533,18.95 C 7.41,18.338 7.165,17.848 6.798,17.604 6.43,17.359 5.941,17.236 5.207,17.236 c -0.736,0 -1.225,0.123 -1.715,0.49 -0.245,0.245 -0.368,0.49 -0.368,0.734 0,0.245 0.123,0.49 0.368,0.735 0.368,0.245 1.102,0.49 2.327,0.857 1.224,0.245 2.081,0.612 2.693,0.856 0.613,0.245 0.979,0.735 1.347,1.225 0.368,0.49 0.49,1.225 0.49,1.959 0,0.735 -0.245,1.348 -0.613,1.959 -0.367,0.613 -0.979,1.103 -1.714,1.348 -0.734,0.245 -1.592,0.366 -2.694,0.366 -1.592,0 -2.694,-0.366 -3.551,-1.101 C 0.92,25.93 0.43,24.951 0.308,23.481 Z" /></g><g
         id="g10"><path
           style="fill:#f05423"
           id="path8"
           d="M 1.042,13.929 V 1.684 h 8.449 v 2.081 h -6 V 6.704 H 8.634 V 8.786 H 3.492 v 5.265 h -2.45 z" /></g></g></switch></svg>