<?xml version="1.0" encoding="UTF-8" standalone="no"?>
<svg
   xmlns:dc="http://purl.org/dc/elements/1.1/"
   xmlns:cc="http://creativecommons.org/ns#"
   xmlns:rdf="http://www.w3.org/1999/02/22-rdf-syntax-ns#"
   xmlns:svg="http://www.w3.org/2000/svg"
   xmlns="http://www.w3.org/2000/svg"
   id="svg17"
   xml:space="preserve"
   enable-background="new 0 0 29.474 29.546"
   viewBox="0 0 29.474 29.546"
   height="29.546px"
   width="29.474px"
   y="0px"
   x="0px"
   version="1.1"><metadata
     id="metadata23"><rdf:RDF><cc:Work
         rdf:about=""><dc:format>image/svg+xml</dc:format><dc:type
           rdf:resource="http://purl.org/dc/dcmitype/StillImage" /></cc:Work></rdf:RDF></metadata><defs
     id="defs21" /><switch
     id="switch15"><g
       id="g13"><path
         id="rect2"
         d="M 0,0.071 H 29.474001 V 29.546 H 0 Z"
         style="fill:#ffffff" /><path
         id="XMLID_72_"
         d="m 13.458,21.822001 a 1.227,1.235 0 0 1 -1.227,1.235 1.227,1.235 0 0 1 -1.227,-1.235 1.227,1.235 0 0 1 1.227,-1.235001 1.227,1.235 0 0 1 1.227,1.235001 z"
         style="fill:#f05423" /><g
         id="g7"><path
           style="fill:#f05423"
           id="path5"
           d="M 3.961,14.042 V 3.793 H 0.256 v -2.1 h 9.88 v 2.1 H 6.431 v 10.25 h -2.47 z" /></g><g
         id="g11"><path
           style="fill:#f05423"
           id="path9"
           d="M 0.998,27.996 V 15.647 h 8.521 v 2.1 H 3.467 v 2.84 h 5.187 v 2.1 H 3.467 v 5.31 H 0.998 Z" /></g></g></switch></svg>