<?xml version="1.0" encoding="UTF-8" standalone="no"?>
<svg
   xmlns:dc="http://purl.org/dc/elements/1.1/"
   xmlns:cc="http://creativecommons.org/ns#"
   xmlns:rdf="http://www.w3.org/1999/02/22-rdf-syntax-ns#"
   xmlns:svg="http://www.w3.org/2000/svg"
   xmlns="http://www.w3.org/2000/svg"
   id="svg16"
   xml:space="preserve"
   enable-background="new 0 0 29.474 29.546"
   viewBox="0 0 29.474 29.546"
   height="29.546px"
   width="29.474px"
   y="0px"
   x="0px"
   version="1.1"><metadata
     id="metadata22"><rdf:RDF><cc:Work
         rdf:about=""><dc:format>image/svg+xml</dc:format><dc:type
           rdf:resource="http://purl.org/dc/dcmitype/StillImage" /></cc:Work></rdf:RDF></metadata><defs
     id="defs20" /><switch
     id="switch14"><g
       id="g12"><path
         id="rect2"
         d="M 0,0.071 H 29.474001 V 29.546 H 0 Z"
         style="fill:#ffffff" /><g
         id="g6"><path
           style="fill:#93c83e"
           id="path4"
           d="m 8.436,9.673 2.4,0.725 c -0.359,1.328 -0.959,2.293 -1.798,2.897 -0.84,0.604 -1.92,0.966 -3.24,0.966 -1.56,0 -2.88,-0.604 -3.958,-1.69 C 0.759,11.484 0.279,9.914 0.279,8.103 0.279,6.05 0.759,4.481 1.84,3.394 2.918,2.307 4.239,1.704 5.919,1.704 c 1.44,0 2.64,0.483 3.599,1.328 0.601,0.482 0.961,1.207 1.201,2.173 l -2.4,0.604 C 8.199,5.205 7.839,4.722 7.479,4.359 7.119,3.997 6.519,3.755 5.799,3.755 c -0.839,0 -1.56,0.363 -2.16,0.966 -0.601,0.605 -0.841,1.692 -0.841,3.14 0,1.57 0.24,2.656 0.839,3.261 0.601,0.604 1.2,0.966 2.16,0.966 0.6,0 1.2,-0.242 1.68,-0.604 0.359,-0.241 0.72,-0.966 0.959,-1.811 z" /></g><g
         id="g10"><path
           style="fill:#93c83e"
           id="path8"
           d="M 0.8,27.378 V 15.349 h 8.901 v 2.045 H 3.326 V 20.04 H 9.34 v 2.044 H 3.326 v 3.248 h 6.735 v 2.045 H 0.8 Z" /></g></g></switch></svg>