<?xml version="1.0" encoding="UTF-8" standalone="no"?>
<svg
   xmlns:dc="http://purl.org/dc/elements/1.1/"
   xmlns:cc="http://creativecommons.org/ns#"
   xmlns:rdf="http://www.w3.org/1999/02/22-rdf-syntax-ns#"
   xmlns:svg="http://www.w3.org/2000/svg"
   xmlns="http://www.w3.org/2000/svg"
   id="svg16"
   xml:space="preserve"
   enable-background="new 0 0 29.474 29.546"
   viewBox="0 0 29.474 29.546"
   height="29.546px"
   width="29.474px"
   y="0px"
   x="0px"
   version="1.1"><metadata
     id="metadata22"><rdf:RDF><cc:Work
         rdf:about=""><dc:format>image/svg+xml</dc:format><dc:type
           rdf:resource="http://purl.org/dc/dcmitype/StillImage" /></cc:Work></rdf:RDF></metadata><defs
     id="defs20" /><switch
     id="switch14"><g
       id="g12"><path
         id="rect2"
         d="M 0,0.071 H 29.474001 V 29.546 H 0 Z"
         style="fill:#ffffff" /><g
         id="g6"><path
           style="fill:#be4198"
           id="path4"
           d="M 12.463,13.89 H 9.778 l -1.1,-2.686 H 3.796 L 2.818,13.89 H 0.256 L 5.017,1.682 H 7.58 Z M 7.947,9.128 6.238,4.489 4.651,9.128 Z" /></g><g
         id="g10"><path
           style="fill:#be4198"
           id="path8"
           d="M 1.349,27.605 V 15.262 h 5.255 c 1.345,0 2.2,0.122 2.812,0.367 0.609,0.244 1.099,0.611 1.466,1.222 0.367,0.611 0.489,1.223 0.489,1.956 0,0.978 -0.245,1.711 -0.855,2.322 -0.49,0.61 -1.344,0.978 -2.444,1.1 0.489,0.367 0.978,0.611 1.345,0.978 0.366,0.367 0.854,0.977 1.466,1.955 l 1.467,2.444 H 9.416 L 7.581,24.918 C 6.972,23.818 6.482,23.207 6.238,22.962 5.994,22.718 5.748,22.596 5.506,22.473 5.26,22.351 4.772,22.351 4.283,22.351 h -0.49 v 5.255 H 1.349 Z m 2.444,-7.21 h 1.834 c 1.221,0 1.954,0 2.198,-0.122 0.245,-0.122 0.49,-0.244 0.734,-0.489 0.245,-0.244 0.245,-0.61 0.245,-0.978 0,-0.366 -0.123,-0.733 -0.366,-0.978 -0.246,-0.244 -0.49,-0.366 -0.979,-0.488 -0.245,0 -0.856,0 -1.833,0 H 3.793 Z" /></g></g></switch></svg>