<?xml version="1.0" encoding="UTF-8" standalone="no"?>
<svg
   xmlns:dc="http://purl.org/dc/elements/1.1/"
   xmlns:cc="http://creativecommons.org/ns#"
   xmlns:rdf="http://www.w3.org/1999/02/22-rdf-syntax-ns#"
   xmlns:svg="http://www.w3.org/2000/svg"
   xmlns="http://www.w3.org/2000/svg"
   id="svg16"
   xml:space="preserve"
   enable-background="new 0 0 29.474 29.546"
   viewBox="0 0 29.474 29.546"
   height="29.546px"
   width="29.474px"
   y="0px"
   x="0px"
   version="1.1"><metadata
     id="metadata22"><rdf:RDF><cc:Work
         rdf:about=""><dc:format>image/svg+xml</dc:format><dc:type
           rdf:resource="http://purl.org/dc/dcmitype/StillImage" /></cc:Work></rdf:RDF></metadata><defs
     id="defs20" /><switch
     id="switch14"><g
       id="g12"><path
         id="rect2"
         d="M 0,0.072 H 29.474001 V 29.547 H 0 Z"
         style="fill:#ffffff" /><g
         id="g6"><path
           style="fill:#93c83e"
           id="path4"
           d="M 2.852,14.062 H 0.256 L 2.852,1.703 h 5.066 c 0.865,0 1.607,0.124 2.102,0.371 0.495,0.247 0.989,0.618 1.236,0.989 0.371,0.495 0.494,1.112 0.494,1.73 0,0.619 -0.123,1.236 -0.37,1.854 C 11.132,7.265 10.885,7.76 10.514,8.13 10.159,8.582 9.773,8.748 9.402,8.872 8.907,9.119 8.413,9.242 7.671,9.242 7.3,9.242 6.559,9.366 5.447,9.366 H 3.84 Z M 4.211,7.264 H 4.953 C 6.312,7.264 7.178,7.141 7.671,7.017 8.166,6.894 8.537,6.646 8.783,6.276 9.031,5.905 9.154,5.534 9.154,5.04 9.154,4.792 9.03,4.545 8.907,4.298 8.762,4.083 8.679,4.042 8.413,3.928 8.166,3.804 7.671,3.804 6.806,3.804 H 4.953 Z" /></g><g
         id="g10"><path
           style="fill:#93c83e"
           id="path8"
           d="M 2.852,27.885 H 0.256 L 2.851,15.526 h 5.066 c 0.865,0 1.607,0.124 2.102,0.371 0.495,0.247 0.989,0.618 1.236,0.989 0.247,0.494 0.494,1.112 0.494,1.73 0,0.618 -0.123,1.236 -0.37,1.854 -0.248,0.618 -0.495,1.112 -0.866,1.359 -0.371,0.371 -0.579,0.619 -1.112,0.865 -0.495,0.124 -0.989,0.247 -1.731,0.371 -0.371,0 -1.112,0.124 -2.224,0.124 H 3.84 Z m 1.574,-6.798 h 0.742 c 1.359,0 2.225,-0.124 2.718,-0.248 0.495,-0.124 0.866,-0.494 1.112,-0.865 0.248,-0.37 0.371,-0.741 0.371,-1.235 0,-0.248 -0.124,-0.495 -0.247,-0.742 C 9.032,17.895 8.875,17.75 8.628,17.626 8.38,17.502 7.886,17.502 7.021,17.502 H 5.168 Z" /></g></g></switch></svg>