<?xml version="1.0" encoding="UTF-8" standalone="no"?>
<svg
   xmlns:dc="http://purl.org/dc/elements/1.1/"
   xmlns:cc="http://creativecommons.org/ns#"
   xmlns:rdf="http://www.w3.org/1999/02/22-rdf-syntax-ns#"
   xmlns:svg="http://www.w3.org/2000/svg"
   xmlns="http://www.w3.org/2000/svg"
   id="svg16"
   xml:space="preserve"
   enable-background="new 0 0 29.474 29.546"
   viewBox="0 0 29.474 29.546"
   height="29.546px"
   width="29.474px"
   y="0px"
   x="0px"
   version="1.1"><metadata
     id="metadata22"><rdf:RDF><cc:Work
         rdf:about=""><dc:format>image/svg+xml</dc:format><dc:type
           rdf:resource="http://purl.org/dc/dcmitype/StillImage" /></cc:Work></rdf:RDF></metadata><defs
     id="defs20" /><switch
     id="switch14"><g
       id="g12"><path
         id="rect2"
         d="M 0,0.071 H 29.474001 V 29.546 H 0 Z"
         style="fill:#ffffff" /><g
         id="g6"><path
           style="fill:#6f9aaf"
           id="path4"
           d="M 0.359,13.797 V 1.655 H 4.004 L 6.189,9.911 8.374,1.655 h 3.645 V 13.797 H 9.831 V 4.205 l -2.43,9.592 H 5.096 L 2.667,4.205 v 9.592 z" /></g><g
         id="g10"><path
           style="fill:#6f9aaf"
           id="path8"
           d="m 1.21,23.486 2.428,-0.244 c 0.121,0.85 0.486,1.336 0.851,1.822 0.363,0.485 1.093,0.606 1.819,0.606 0.852,0 1.337,-0.121 1.823,-0.486 0.364,-0.365 0.607,-0.728 0.607,-1.213 0,-0.244 -0.121,-0.485 -0.243,-0.729 C 8.373,23 8.01,22.877 7.646,22.756 7.401,22.635 6.674,22.514 5.702,22.27 4.367,21.906 3.517,21.542 2.909,21.057 2.182,20.327 1.817,19.599 1.817,18.628 c 0,-0.607 0.121,-1.216 0.486,-1.701 0.365,-0.486 0.867,-0.999 1.575,-1.304 0.74,-0.317 1.219,-0.516 2.191,-0.516 1.578,0 2.67,0.363 3.4,0.972 0.728,0.606 1.213,1.578 1.213,2.67 l -2.429,0.12 C 8.132,18.263 7.888,17.777 7.525,17.536 7.161,17.292 6.675,17.171 5.948,17.171 c -0.731,0 -1.217,0.121 -1.703,0.486 -0.241,0.241 -0.364,0.486 -0.364,0.727 0,0.245 0.123,0.486 0.364,0.73 0.366,0.242 1.093,0.486 2.309,0.851 1.213,0.242 2.063,0.606 2.67,0.848 0.607,0.244 1.011,0.668 1.336,1.216 0.311,0.522 0.486,1.213 0.486,1.943 0,0.728 -0.244,1.334 -0.606,1.944 -0.365,0.606 -0.972,1.092 -1.701,1.333 -0.729,0.244 -1.578,0.486 -2.67,0.486 -1.579,0 -2.673,-0.363 -3.522,-1.093 C 1.816,25.916 1.331,24.82 1.21,23.486 Z" /></g></g></switch></svg>