<?xml version="1.0" encoding="UTF-8" standalone="no"?>
<svg
   xmlns:dc="http://purl.org/dc/elements/1.1/"
   xmlns:cc="http://creativecommons.org/ns#"
   xmlns:rdf="http://www.w3.org/1999/02/22-rdf-syntax-ns#"
   xmlns:svg="http://www.w3.org/2000/svg"
   xmlns="http://www.w3.org/2000/svg"
   id="svg16"
   xml:space="preserve"
   enable-background="new 0 0 29.474 29.546"
   viewBox="0 0 29.474 29.546"
   height="29.546px"
   width="29.474px"
   y="0px"
   x="0px"
   version="1.1"><metadata
     id="metadata22"><rdf:RDF><cc:Work
         rdf:about=""><dc:format>image/svg+xml</dc:format><dc:type
           rdf:resource="http://purl.org/dc/dcmitype/StillImage" /></cc:Work></rdf:RDF></metadata><defs
     id="defs20" /><switch
     id="switch14"><g
       id="g12"><path
         id="rect2"
         d="M 0,0.071 H 29.474001 V 29.546 H 0 Z"
         style="fill:#ffffff" /><g
         id="g6"><path
           style="fill:#6f9aaf"
           id="path4"
           d="M 0.542,27.606 V 15.288 h 5.244 c 1.342,0 2.196,0.122 2.806,0.366 0.609,0.244 1.097,0.61 1.463,1.22 0.366,0.61 0.488,1.22 0.488,1.952 0,0.976 -0.244,1.708 -0.854,2.317 -0.488,0.609 -1.341,0.976 -2.439,1.098 0.488,0.366 0.976,0.61 1.342,0.976 0.365,0.365 0.853,0.975 1.463,1.951 l 1.465,2.439 H 8.592 L 6.762,24.924 C 6.152,23.826 5.663,23.217 5.42,22.973 5.177,22.729 4.933,22.607 4.689,22.485 4.445,22.363 3.957,22.363 3.469,22.363 H 2.981 v 5.244 H 0.542 Z M 2.981,20.41 h 1.83 c 1.219,0 1.952,0 2.195,-0.122 0.243,-0.122 0.487,-0.244 0.731,-0.488 0.244,-0.244 0.244,-0.61 0.244,-0.976 0,-0.366 -0.122,-0.732 -0.366,-0.976 -0.244,-0.244 -0.488,-0.365 -0.975,-0.487 -0.244,0 -0.854,0 -1.83,0 H 2.98 v 3.049 z" /></g><g
         id="g10"><path
           style="fill:#6f9aaf"
           id="path8"
           d="M 0.542,13.824 V 1.627 H 9.567 V 3.7 H 3.104 V 6.383 H 9.202 V 8.456 H 3.104 v 3.293 h 6.83 v 2.073 H 0.542 Z" /></g></g></switch></svg>