<?xml version="1.0" encoding="UTF-8" standalone="no"?>
<svg
   xmlns:dc="http://purl.org/dc/elements/1.1/"
   xmlns:cc="http://creativecommons.org/ns#"
   xmlns:rdf="http://www.w3.org/1999/02/22-rdf-syntax-ns#"
   xmlns:svg="http://www.w3.org/2000/svg"
   xmlns="http://www.w3.org/2000/svg"
   id="svg16"
   xml:space="preserve"
   enable-background="new 0 0 29.474 29.546"
   viewBox="0 0 29.474 29.546"
   height="29.546px"
   width="29.474px"
   y="0px"
   x="0px"
   version="1.1"><metadata
     id="metadata22"><rdf:RDF><cc:Work
         rdf:about=""><dc:format>image/svg+xml</dc:format><dc:type
           rdf:resource="http://purl.org/dc/dcmitype/StillImage" /></cc:Work></rdf:RDF></metadata><defs
     id="defs20" /><switch
     id="switch14"><g
       id="g12"><path
         id="rect2"
         d="M 0,0.071 H 29.474001 V 29.546 H 0 Z"
         style="fill:#ffffff" /><g
         id="g6"><path
           style="fill:#be4198"
           id="path4"
           d="M 12.442,13.865 H 9.762 L 8.666,11.186 H 3.795 L 2.821,13.865 H 0.264 L 5.012,1.687 H 7.571 Z M 7.936,9.116 6.232,4.488 4.648,9.116 Z" /></g><g
         id="g10"><path
           style="fill:#be4198"
           id="path8"
           d="m 1.238,23.121 2.435,-0.244 c 0.122,0.853 0.487,1.339 0.853,1.826 0.366,0.488 1.097,0.61 1.827,0.61 0.852,0 1.34,-0.122 1.827,-0.487 0.364,-0.365 0.608,-0.853 0.608,-1.218 0,-0.244 -0.122,-0.487 -0.244,-0.731 C 8.423,22.633 8.057,22.512 7.692,22.39 7.448,22.268 6.718,22.146 5.743,21.903 4.403,21.537 3.551,21.172 2.943,20.685 2.213,19.955 1.847,19.224 1.847,18.25 c 0,-0.61 0.122,-1.219 0.486,-1.706 0.366,-0.487 0.853,-0.974 1.584,-1.217 0.731,-0.243 1.461,-0.366 2.436,-0.366 1.583,0 2.68,0.366 3.41,0.974 0.73,0.609 1.218,1.583 1.218,2.68 L 8.544,18.737 C 8.423,18.128 8.18,17.641 7.813,17.397 7.449,17.154 6.961,17.032 6.231,17.032 c -0.731,0 -1.22,0.122 -1.706,0.487 -0.243,0.244 -0.365,0.487 -0.365,0.731 0,0.243 0.122,0.486 0.365,0.73 0.366,0.244 1.097,0.487 2.314,0.853 1.217,0.365 2.07,0.609 2.679,0.853 0.608,0.244 0.974,0.73 1.339,1.218 0.365,0.488 0.486,1.218 0.486,1.948 0,0.731 -0.242,1.34 -0.608,1.949 -0.364,0.609 -0.974,1.096 -1.704,1.339 -0.73,0.244 -1.583,0.487 -2.68,0.487 -1.583,0 -2.68,-0.365 -3.532,-1.096 -0.85,-0.974 -1.338,-2.071 -1.581,-3.41 z" /></g></g></switch></svg>