<?xml version="1.0" encoding="UTF-8" standalone="no"?>
<svg
   xmlns:dc="http://purl.org/dc/elements/1.1/"
   xmlns:cc="http://creativecommons.org/ns#"
   xmlns:rdf="http://www.w3.org/1999/02/22-rdf-syntax-ns#"
   xmlns:svg="http://www.w3.org/2000/svg"
   xmlns="http://www.w3.org/2000/svg"
   id="svg16"
   xml:space="preserve"
   enable-background="new 0 0 29.474 29.546"
   viewBox="0 0 29.474 29.546"
   height="29.546px"
   width="29.474px"
   y="0px"
   x="0px"
   version="1.1"><metadata
     id="metadata22"><rdf:RDF><cc:Work
         rdf:about=""><dc:format>image/svg+xml</dc:format><dc:type
           rdf:resource="http://purl.org/dc/dcmitype/StillImage" /></cc:Work></rdf:RDF></metadata><defs
     id="defs20" /><switch
     id="switch14"><g
       id="g12"><path
         id="rect2"
         d="M 0,0.071 H 29.474001 V 29.546 H 0 Z"
         style="fill:#ffffff" /><g
         id="g6"><path
           style="fill:#be4198"
           id="path4"
           d="M 4.927,13.786 0.498,1.486 h 2.706 l 3.075,9.102 3.076,-9.102 h 2.583 l -4.428,12.3 z" /></g><g
         id="g10"><path
           style="fill:#be4198"
           id="path8"
           d="m 1.113,23.502 2.461,-0.246 c 0.123,0.861 0.492,1.353 0.861,1.845 0.369,0.492 1.107,0.615 1.844,0.615 0.861,0 1.353,-0.123 1.845,-0.492 0.369,-0.369 0.615,-0.738 0.615,-1.23 0,-0.246 -0.123,-0.492 -0.246,-0.738 C 8.37,23.01 8.001,22.887 7.632,22.764 7.386,22.641 6.648,22.518 5.665,22.272 4.311,21.903 3.45,21.534 2.835,21.042 2.097,20.304 1.728,19.566 1.728,18.582 c 0,-0.615 0.123,-1.23 0.492,-1.722 0.37,-0.492 0.862,-0.984 1.6,-1.23 0.738,-0.246 1.476,-0.369 2.459,-0.369 1.599,0 2.707,0.369 3.445,0.984 0.738,0.615 1.23,1.6 1.23,2.707 l -2.46,0.123 C 8.371,18.46 8.125,17.968 7.756,17.721 7.386,17.475 6.894,17.352 6.157,17.352 c -0.738,0 -1.23,0.123 -1.722,0.492 -0.246,0.246 -0.369,0.492 -0.369,0.738 0,0.246 0.123,0.492 0.369,0.738 0.369,0.246 1.107,0.492 2.336,0.861 1.238,0.276 1.956,0.322 2.571,0.568 0.615,0.246 1.063,0.646 1.366,1.153 0.384,0.597 0.492,1.23 0.492,1.968 0,0.738 -0.247,1.353 -0.616,1.968 -0.369,0.614 -0.984,1.106 -1.722,1.353 -0.738,0.246 -1.599,0.492 -2.706,0.492 -1.599,0 -2.707,-0.369 -3.567,-1.107 -0.738,-0.614 -1.23,-1.721 -1.476,-3.074 z" /></g></g></switch></svg>