<?xml version="1.0" encoding="UTF-8" standalone="no"?>
<svg
   xmlns:dc="http://purl.org/dc/elements/1.1/"
   xmlns:cc="http://creativecommons.org/ns#"
   xmlns:rdf="http://www.w3.org/1999/02/22-rdf-syntax-ns#"
   xmlns:svg="http://www.w3.org/2000/svg"
   xmlns="http://www.w3.org/2000/svg"
   id="svg16"
   xml:space="preserve"
   enable-background="new 0 0 29.474 29.475"
   viewBox="0 0 29.474 29.475"
   height="29.475px"
   width="29.474px"
   y="0px"
   x="0px"
   version="1.1"><metadata
     id="metadata22"><rdf:RDF><cc:Work
         rdf:about=""><dc:format>image/svg+xml</dc:format><dc:type
           rdf:resource="http://purl.org/dc/dcmitype/StillImage" /></cc:Work></rdf:RDF></metadata><defs
     id="defs20" /><switch
     id="switch14"><g
       id="g12"><path
         id="rect2"
         d="M 0,0 H 29.475 V 29.475 H 0 Z"
         style="fill:#ffffff" /><g
         id="g6"><path
           style="fill:#ecc00a;stroke:#e3b90b;stroke-width:0.25;stroke-miterlimit:10"
           id="path4"
           d="M 4.223,13.913 V 3.549 H 0.478 V 1.426 h 10 V 3.549 H 6.721 V 13.912 H 4.223 Z"
           stroke-miterlimit="10" /></g><g
         id="g10"><path
           style="fill:#ecc00a;stroke:#e3b90b;stroke-width:0.25;stroke-miterlimit:10"
           id="path8"
           d="m 0.352,23.761 2.498,-0.25 c 0.124,0.874 0.5,1.375 0.875,1.873 0.374,0.501 1.123,0.625 1.871,0.625 0.875,0 1.376,-0.124 1.887,-0.498 0.39,-0.376 0.64,-0.752 0.64,-1.25 0,-0.25 -0.123,-0.5 -0.25,-0.75 C 7.746,23.286 7.288,23.036 6.846,22.889 6.596,22.762 5.847,22.638 4.849,22.388 3.476,22.014 2.601,21.639 1.976,21.138 1.227,20.39 0.853,19.642 0.853,18.643 c 0,-0.625 0.124,-1.249 0.499,-1.75 0.377,-0.498 0.874,-0.999 1.623,-1.249 0.751,-0.25 1.499,-0.374 2.498,-0.374 1.624,0 2.774,0.374 3.507,0.998 0.75,0.625 1.248,1.624 1.248,2.749 L 7.749,19.141 C 7.615,18.516 7.351,18.018 6.973,17.768 6.596,17.518 6.098,17.394 5.349,17.394 c -0.751,0 -1.249,0.124 -1.75,0.498 -0.248,0.25 -0.374,0.501 -0.374,0.751 0,0.248 0.126,0.498 0.374,0.748 0.375,0.251 1.126,0.498 2.375,0.876 1.246,0.247 2.149,0.622 2.752,0.871 0.629,0.251 1.004,0.751 1.377,1.25 0.375,0.501 0.502,1.249 0.502,1.997 0,0.75 -0.252,1.373 -0.625,1.998 -0.375,0.624 -1,1.125 -1.733,1.374 -0.764,0.249 -1.651,0.375 -2.774,0.375 -1.623,0 -2.746,-0.375 -3.621,-1.125 -0.876,-0.748 -1.374,-1.747 -1.5,-3.246 z"
           stroke-miterlimit="10" /></g></g></switch></svg>