<?xml version="1.0" encoding="UTF-8" standalone="no"?>
<svg
   xmlns:dc="http://purl.org/dc/elements/1.1/"
   xmlns:cc="http://creativecommons.org/ns#"
   xmlns:rdf="http://www.w3.org/1999/02/22-rdf-syntax-ns#"
   xmlns:svg="http://www.w3.org/2000/svg"
   xmlns="http://www.w3.org/2000/svg"
   id="svg16"
   xml:space="preserve"
   enable-background="new 0 0 29.474 29.546"
   viewBox="0 0 29.474 29.546"
   height="29.546px"
   width="29.474px"
   y="0px"
   x="0px"
   version="1.1"><metadata
     id="metadata22"><rdf:RDF><cc:Work
         rdf:about=""><dc:format>image/svg+xml</dc:format><dc:type
           rdf:resource="http://purl.org/dc/dcmitype/StillImage" /></cc:Work></rdf:RDF></metadata><defs
     id="defs20" /><switch
     id="switch14"><g
       id="g12"><path
         id="rect2"
         d="M 0,0.071 H 29.474001 V 29.546 H 0 Z"
         style="fill:#ffffff" /><g
         id="g6"><path
           style="fill:#93c83e"
           id="path4"
           d="M 3.902,13.857 V 3.709 H 0.233 V 1.63 h 9.782 V 3.709 H 6.347 v 10.148 z" /></g><g
         id="g10"><path
           style="fill:#93c83e"
           id="path8"
           d="M 0.6,27.63 V 15.403 h 3.913 c 1.467,0 2.445,0 2.934,0.244 0.734,0.245 1.345,0.611 1.712,1.223 0.488,0.611 0.733,1.466 0.733,2.445 0,0.734 -0.123,1.345 -0.367,1.956 -0.246,0.49 -0.612,0.856 -1.101,1.223 -0.366,0.245 -0.856,0.489 -1.223,0.611 -0.611,0.123 -1.467,0.123 -2.567,0.123 H 3.044 V 27.63 Z M 3.045,17.481 v 3.424 H 4.39 c 0.979,0 1.589,-0.123 1.957,-0.245 0.367,-0.123 0.611,-0.367 0.734,-0.611 0.244,-0.245 0.244,-0.611 0.244,-0.979 0,-0.489 -0.123,-0.855 -0.367,-1.1 C 6.714,17.725 6.347,17.481 5.98,17.481 5.736,17.481 5.124,17.359 4.146,17.359 H 3.045 Z" /></g></g></switch></svg>