<?xml version="1.0" encoding="UTF-8" standalone="no"?>
<svg
   xmlns:dc="http://purl.org/dc/elements/1.1/"
   xmlns:cc="http://creativecommons.org/ns#"
   xmlns:rdf="http://www.w3.org/1999/02/22-rdf-syntax-ns#"
   xmlns:svg="http://www.w3.org/2000/svg"
   xmlns="http://www.w3.org/2000/svg"
   id="svg16"
   xml:space="preserve"
   enable-background="new 0 0 29.474 29.546"
   viewBox="0 0 29.474 29.546"
   height="29.546px"
   width="29.474px"
   y="0px"
   x="0px"
   version="1.1"><metadata
     id="metadata22"><rdf:RDF><cc:Work
         rdf:about=""><dc:format>image/svg+xml</dc:format><dc:type
           rdf:resource="http://purl.org/dc/dcmitype/StillImage" /></cc:Work></rdf:RDF></metadata><defs
     id="defs20" /><switch
     id="switch14"><g
       id="g12"><path
         id="rect2"
         d="M 0,0.071 H 29.474001 V 29.546 H 0 Z"
         style="fill:#ffffff" /><g
         id="g6"><path
           style="fill:#93c83e"
           id="path4"
           d="m 0.72,1.712 h 4.854 c 0.971,0 1.699,0 2.185,0.122 0.485,0.121 0.85,0.242 1.213,0.485 0.364,0.243 0.728,0.606 0.971,0.97 0.243,0.365 0.364,0.85 0.364,1.457 0,0.606 -0.121,1.092 -0.485,1.578 -0.365,0.485 -0.729,0.848 -1.214,1.092 0.728,0.243 1.334,0.606 1.698,1.092 0.364,0.486 0.607,1.092 0.607,1.821 0,0.606 -0.122,1.092 -0.364,1.577 -0.242,0.485 -0.607,0.971 -1.092,1.214 -0.485,0.363 -0.97,0.485 -1.698,0.606 -0.363,0.044 -1.456,0.122 -2.913,0.122 H 0.72 Z m 2.427,1.743 v 2.99 h 1.577 c 0.971,0 1.578,0 1.821,0 0.363,0 0.728,-0.243 0.971,-0.485 C 7.759,5.717 7.879,5.353 7.879,4.989 7.879,4.625 7.758,4.26 7.516,4.018 7.274,3.776 7.03,3.654 6.545,3.532 c -0.243,0 -0.971,0 -2.063,0 L 3.147,3.534 Z m 0,4.854 v 3.476 h 2.305 c 0.85,0 1.456,0 1.7,-0.122 C 7.516,11.541 7.758,11.42 8.001,11.178 8.243,10.935 8.365,10.571 8.365,10.086 8.365,9.722 8.243,9.357 8.123,9.115 8.001,8.872 7.637,8.629 7.394,8.507 7.03,8.386 6.302,8.386 5.209,8.386 L 3.147,8.379 Z" /></g><g
         id="g10"><path
           style="fill:#93c83e"
           id="path8"
           d="M 4.603,27.559 0.234,15.425 h 2.67 l 3.034,8.979 3.033,-8.979 H 11.52 L 7.273,27.559 Z" /></g></g></switch></svg>