<?xml version="1.0" encoding="UTF-8" standalone="no"?>
<svg
   xmlns:dc="http://purl.org/dc/elements/1.1/"
   xmlns:cc="http://creativecommons.org/ns#"
   xmlns:rdf="http://www.w3.org/1999/02/22-rdf-syntax-ns#"
   xmlns:svg="http://www.w3.org/2000/svg"
   xmlns="http://www.w3.org/2000/svg"
   id="svg18"
   xml:space="preserve"
   enable-background="new 0 0 29.161 21.811"
   viewBox="0 0 29.161 21.811"
   height="21.811px"
   width="29.161px"
   y="0px"
   x="0px"
   version="1.1"><metadata
     id="metadata24"><rdf:RDF><cc:Work
         rdf:about=""><dc:format>image/svg+xml</dc:format><dc:type
           rdf:resource="http://purl.org/dc/dcmitype/StillImage" /></cc:Work></rdf:RDF></metadata><defs
     id="defs22" /><switch
     id="switch16"><g
       id="g14"><path
         style="fill:none;stroke:#00528e;stroke-width:2"
         id="path2"
         d="m 26.366,20.811 c 0.995,0 1.801,-0.808 1.801,-1.802 V 6.358 c 0,-0.997 -0.806,-1.803 -1.801,-1.803 H 22.53 C 21.465,4.555 21.261,4.047 20.6,3.539 19.941,3.031 18.874,1.761 18.466,1.455 18.058,1.152 17.778,1 17.22,1 16.662,1 12.504,1 11.946,1 11.387,1 11.105,1.153 10.699,1.455 10.292,1.761 9.225,3.032 8.564,3.54 7.905,4.047 7.7,4.554 6.635,4.554 H 2.801 c -0.995,0 -1.803,0.807 -1.803,1.803 v 12.651 c 0,0.993 0.808,1.802 1.803,1.802 z" /><path
         style="fill:#8d8d8d"
         id="path4"
         d="m 14.594,9.825 c 1.28,0 2.294,1.019 2.294,2.273 0,1.254 -1.015,2.271 -2.294,2.271 -1.255,0 -2.271,-1.017 -2.271,-2.271 0,-1.254 1.016,-2.273 2.271,-2.273 z" /><path
         style="fill:#00528e"
         id="path6"
         d="m 14.594,9.46 c 1.48,0 2.661,1.182 2.661,2.639 0,1.456 -1.181,2.637 -2.661,2.637 -1.457,0 -2.637,-1.181 -2.637,-2.637 0,-1.457 1.18,-2.639 2.637,-2.639 z" /><path
         style="fill:none;stroke:#00528e;stroke-width:2"
         id="path8"
         d="m 14.594,6.268 c 3.245,0 5.854,2.611 5.854,5.831 0,3.22 -2.609,5.828 -5.854,5.828 -3.219,0 -5.828,-2.608 -5.828,-5.828 0,-3.22 2.609,-5.831 5.828,-5.831 z" /><path
         id="line10"
         d="M 3.6229999,3.5369999 H 6.2459998"
         style="fill:none;stroke:#00528e;stroke-width:2" /><path
         id="line12"
         d="m 21.74,6.8239999 h 1.569"
         style="fill:none;stroke:#00528e;stroke-width:1.70000005" /></g></switch></svg>