<?xml version="1.0" encoding="UTF-8" standalone="no"?>
<svg
   xmlns:dc="http://purl.org/dc/elements/1.1/"
   xmlns:cc="http://creativecommons.org/ns#"
   xmlns:rdf="http://www.w3.org/1999/02/22-rdf-syntax-ns#"
   xmlns:svg="http://www.w3.org/2000/svg"
   xmlns="http://www.w3.org/2000/svg"
   id="svg14"
   xml:space="preserve"
   enable-background="new 0 0 19.667 26.146"
   viewBox="0 0 19.667 26.146"
   height="26.146px"
   width="19.667px"
   y="0px"
   x="0px"
   version="1.1"><metadata
     id="metadata20"><rdf:RDF><cc:Work
         rdf:about=""><dc:format>image/svg+xml</dc:format><dc:type
           rdf:resource="http://purl.org/dc/dcmitype/StillImage" /></cc:Work></rdf:RDF></metadata><defs
     id="defs18" /><switch
     id="switch12"><g
       id="g10"><path
         style="fill:#00528e;stroke:#00528e;stroke-width:0.25"
         id="path2"
         d="m 0.923,23.026 c -0.145,1.161 -0.769,2.952 -0.769,2.952 l 0.016,0.008 c 0,0 1.232,-1.796 2.172,-2.751 C 3.187,22.377 4.57,21.074 5.22,19.787 5.869,18.501 9.813,10.302 9.813,10.302 L 9.83,10.032 6.362,7.696 c 0,0 0.343,0.846 -0.137,1.821 -0.923,1.874 -3.911,8.068 -4.431,9.102 -0.627,1.249 -0.754,3.462 -0.871,4.407 z" /><path
         style="fill:#00528e;stroke:#00528e;stroke-width:0.25"
         id="path4"
         d="m 18.744,23.026 c 0.145,1.161 0.769,2.952 0.769,2.952 l -0.016,0.008 c 0,0 -1.232,-1.796 -2.172,-2.751 -0.845,-0.858 -2.229,-2.161 -2.88,-3.448 -0.653,-1.286 -4.624,-9.485 -4.624,-9.485 l -0.017,-0.27 3.491,-2.336 c 0,0 -0.345,0.846 0.138,1.821 0.93,1.874 3.919,8.068 4.439,9.102 0.628,1.249 0.756,3.462 0.872,4.407 z" /><path
         id="line6"
         d="M 9.816,0 V 4.0479999"
         style="fill:#ffffff;stroke:#00528e;stroke-width:1.29999995" /><path
         id="ellipse8"
         d="M 13,6.8260002 A 3.158,3.184 0 0 1 9.842,10.01 3.158,3.184 0 0 1 6.684,6.8260002 a 3.158,3.184 0 0 1 3.158,-3.184 3.158,3.184 0 0 1 3.158,3.184 z"
         style="fill:none;stroke:#00528e;stroke-width:1.29999995" /></g></switch></svg>