<?xml version="1.0" encoding="UTF-8" standalone="no"?>
<svg
   xmlns:dc="http://purl.org/dc/elements/1.1/"
   xmlns:cc="http://creativecommons.org/ns#"
   xmlns:rdf="http://www.w3.org/1999/02/22-rdf-syntax-ns#"
   xmlns:svg="http://www.w3.org/2000/svg"
   xmlns="http://www.w3.org/2000/svg"
   id="svg10"
   xml:space="preserve"
   enable-background="new 0 0 29.3 29.3"
   viewBox="0 0 29.3 29.3"
   height="29.3px"
   width="29.3px"
   y="0px"
   x="0px"
   version="1.1"><metadata
     id="metadata16"><rdf:RDF><cc:Work
         rdf:about=""><dc:format>image/svg+xml</dc:format><dc:type
           rdf:resource="http://purl.org/dc/dcmitype/StillImage" /></cc:Work></rdf:RDF></metadata><defs
     id="defs14" /><switch
     id="switch8"><g
       id="g6"><path
         id="circle2"
         d="M 29.299999,14.65 A 14.65,14.65 0 0 1 14.65,29.299999 14.65,14.65 0 0 1 0,14.65 14.65,14.65 0 0 1 14.65,0 14.65,14.65 0 0 1 29.299999,14.65 Z"
         style="fill:#1b2651" /><path
         style="fill:#ffffff"
         id="path4"
         d="m 23.036,10.735 c 0,0 -3.238,-2.869 -5.609,-4.49 -2.369,-1.621 -1.726,2.057 -1.726,2.057 l -5.35,5.507 c -2.99,-1.122 -4.233,1.064 -4.233,1.064 l 5.201,4.104 -2.909,3.968 c -0.243,0.335 -0.171,0.802 0.16,1.046 0.133,0.098 0.289,0.143 0.443,0.143 0.229,0 0.457,-0.103 0.604,-0.304 l 2.879,-3.926 4.692,3.7 c 1.997,-1.743 0.348,-4.766 0.348,-4.766 l 3.758,-6.624 c 3.612,0.251 1.742,-1.479 1.742,-1.479 z" /></g></switch></svg>