<?xml version="1.0" encoding="UTF-8" standalone="no"?>
<svg
   xmlns:dc="http://purl.org/dc/elements/1.1/"
   xmlns:cc="http://creativecommons.org/ns#"
   xmlns:rdf="http://www.w3.org/1999/02/22-rdf-syntax-ns#"
   xmlns:svg="http://www.w3.org/2000/svg"
   xmlns="http://www.w3.org/2000/svg"
   id="svg12"
   xml:space="preserve"
   enable-background="new 0 0 29.33 29.33"
   viewBox="0 0 29.33 29.33"
   height="29.33px"
   width="29.33px"
   y="0px"
   x="0px"
   version="1.1"><metadata
     id="metadata18"><rdf:RDF><cc:Work
         rdf:about=""><dc:format>image/svg+xml</dc:format><dc:type
           rdf:resource="http://purl.org/dc/dcmitype/StillImage" /></cc:Work></rdf:RDF></metadata><defs
     id="defs16" /><switch
     id="switch10"><g
       id="g8"><path
         id="circle2"
         d="M 29.33,14.665 A 14.665,14.665 0 0 1 14.665,29.33 14.665,14.665 0 0 1 0,14.665 14.665,14.665 0 0 1 14.665,0 14.665,14.665 0 0 1 29.33,14.665 Z"
         style="fill:#1b2651" /><path
         id="polygon4"
         d="m 26.12,15.283 -5.677,9.181 -5.687,-9.181 z"
         style="fill:#ffffff" /><path
         style="fill:#ffffff"
         id="path6"
         d="m 18.288,15.449 c 0.005,-0.137 0.011,-0.843 0.011,-0.98 0,-3.946 -2.986,-6.829 -6.932,-6.829 -3.953,0 -7.158,2.883 -7.158,6.829 0,0.154 -0.017,0.639 -0.008,0.791 l -1.247,0.009 c -0.012,-0.189 0.003,-0.778 0.003,-0.97 0,-4.934 4.437,-8.939 9.379,-8.939 5.512,0 10.457,4.006 10.457,8.939 0,0.171 0.025,0.966 0.016,1.134 z" /></g></switch></svg>