<?xml version="1.0" encoding="UTF-8" standalone="no"?>
<svg
   xmlns:dc="http://purl.org/dc/elements/1.1/"
   xmlns:cc="http://creativecommons.org/ns#"
   xmlns:rdf="http://www.w3.org/1999/02/22-rdf-syntax-ns#"
   xmlns:svg="http://www.w3.org/2000/svg"
   xmlns="http://www.w3.org/2000/svg"
   id="svg13"
   xml:space="preserve"
   enable-background="new 0 0 28.575 21.197"
   viewBox="0 0 28.575 21.197"
   height="21.197px"
   width="28.575px"
   y="0px"
   x="0px"
   version="1.1"><metadata
     id="metadata19"><rdf:RDF><cc:Work
         rdf:about=""><dc:format>image/svg+xml</dc:format><dc:type
           rdf:resource="http://purl.org/dc/dcmitype/StillImage" /></cc:Work></rdf:RDF></metadata><defs
     id="defs17" /><switch
     id="switch11"><g
       id="g9"><path
         id="XMLID_20272_"
         d="M 17.741,16.939 H 14.367 L 12.919,19.497 11.308,4 9.132,17.265 6.916,14.465 4.922,16.977 H 0"
         style="fill:none;stroke:#00528e;stroke-width:1.25;stroke-miterlimit:10" /><g
         id="g7"><path
           style="fill:#00528e"
           id="path3"
           d="m 27.785,12.33 c -0.658,-0.244 -1.392,-0.131 -1.878,0.356 -0.498,0.499 -0.605,1.249 -0.345,1.916 l -0.039,0.039 c -0.524,0.314 -1.1,0.563 -1.706,0.729 l -0.032,0.011 c -0.288,-0.66 -0.937,-1.151 -1.628,-1.151 -0.709,0 -1.321,0.466 -1.603,1.15 L 20.543,15.4 C 19.9,15.24 19.297,14.98 18.741,14.652 l 0.003,-0.005 c 0.283,-0.676 0.169,-1.455 -0.337,-1.962 -0.517,-0.518 -1.213,-0.518 -1.896,-0.213 l -0.08,-0.104 c -0.33,-0.545 -0.588,-1.141 -0.751,-1.773 l -0.01,-0.038 c 0.697,-0.271 1.185,-0.896 1.185,-1.623 0,-0.723 -0.484,-1.346 -1.176,-1.62 L 15.691,7.223 C 15.849,6.627 16.087,6.066 16.394,5.55 l 0.019,-0.026 c 0.691,0.309 1.485,0.186 2.004,-0.331 0.501,-0.502 0.604,-1.265 0.328,-1.939 l -0.024,-0.04 c 0.54,-0.324 1.13,-0.57 1.755,-0.73 l 0.068,-0.008 c 0.276,0.683 0.896,1.158 1.617,1.158 0.692,0 1.291,-0.443 1.582,-1.085 l 0.029,-0.065 c 0.64,0.163 1.258,0.419 1.81,0.752 l -0.021,0.049 c -0.262,0.666 -0.156,1.416 0.339,1.911 0.502,0.502 1.256,0.615 1.932,0.339 l 0.01,-0.003 c 0.325,0.545 0.575,1.142 0.732,1.773 h -0.002 c -0.657,0.287 -1.121,0.932 -1.121,1.633 0,0.697 0.469,1.32 1.12,1.607 l -0.009,0.052 c -0.163,0.627 -0.415,1.211 -0.744,1.755 z" /><path
           id="circle5"
           d="M 24.943,8.9250002 A 2.8180001,2.8180001 0 0 1 22.125,11.743 2.8180001,2.8180001 0 0 1 19.307,8.9250002 2.8180001,2.8180001 0 0 1 22.125,6.1070001 2.8180001,2.8180001 0 0 1 24.943,8.9250002 Z"
           style="fill:#ffffff" /></g></g></switch></svg>