<?xml version="1.0" encoding="UTF-8" standalone="no"?>
<svg
   xmlns:dc="http://purl.org/dc/elements/1.1/"
   xmlns:cc="http://creativecommons.org/ns#"
   xmlns:rdf="http://www.w3.org/1999/02/22-rdf-syntax-ns#"
   xmlns:svg="http://www.w3.org/2000/svg"
   xmlns="http://www.w3.org/2000/svg"
   id="svg17"
   xml:space="preserve"
   enable-background="new 0 0 17.161 17.392"
   viewBox="0 0 17.161 17.392"
   height="17.392px"
   width="17.161px"
   y="0px"
   x="0px"
   version="1.1"><metadata
     id="metadata23"><rdf:RDF><cc:Work
         rdf:about=""><dc:format>image/svg+xml</dc:format><dc:type
           rdf:resource="http://purl.org/dc/dcmitype/StillImage" /></cc:Work></rdf:RDF></metadata><defs
     id="defs21" /><switch
     id="switch15"><g
       id="g13"><path
         id="ellipse2"
         d="M 17.161,3.3 A 3.276,3.3 0 0 1 13.885,6.5999999 3.276,3.3 0 0 1 10.609,3.3 3.276,3.3 0 0 1 13.885,0 3.276,3.3 0 0 1 17.161,3.3 Z"
         style="fill:#124e8b" /><path
         style="fill:none;stroke:#124e8b;stroke-width:0.7694;stroke-miterlimit:10"
         id="path4"
         d="m 13.515,15.777 c 0,0.68 -0.615,1.23 -1.374,1.23 H 5.325 c -0.759,0 -1.375,-0.551 -1.375,-1.23 V 2.897 c 0,-0.681 0.616,-1.231 1.375,-1.231 h 6.816 c 0.757,0 1.374,0.551 1.374,1.231 z"
         stroke-miterlimit="10" /><g
         id="g8"><path
           style="fill:#f1f2f2"
           id="path6"
           d="M 13.504,5.11 V 3.828 H 12.222 V 2.906 h 1.282 V 1.635 h 0.899 v 1.271 h 1.272 V 3.828 H 14.403 V 5.11 Z" /></g><path
         id="XMLID_3_"
         d="m 12.906,11.593 h 3.583"
         style="fill:none;stroke:#124e8b;stroke-width:0.96170002;stroke-miterlimit:10" /><path
         id="XMLID_2_"
         d="m 4.447,11.593 h 0.372 l 1.079,-1.362 1.449,1.58 1.204,-5.873 1.136,7.201 0.89,-1.546 h 2.356"
         style="fill:none;stroke:#124e8b;stroke-width:0.96170002;stroke-miterlimit:10" /><path
         id="XMLID_1_"
         d="M 0,11.593 H 4.447"
         style="fill:none;stroke:#124e8b;stroke-width:0.96170002;stroke-miterlimit:10" /></g></switch></svg>