<?xml version="1.0" encoding="UTF-8" standalone="no"?>
<svg
   xmlns:dc="http://purl.org/dc/elements/1.1/"
   xmlns:cc="http://creativecommons.org/ns#"
   xmlns:rdf="http://www.w3.org/1999/02/22-rdf-syntax-ns#"
   xmlns:svg="http://www.w3.org/2000/svg"
   xmlns="http://www.w3.org/2000/svg"
   id="svg18"
   xml:space="preserve"
   enable-background="new 0 0 16.968 17.008"
   viewBox="0 0 16.968 17.008"
   height="17.008px"
   width="16.968px"
   y="0px"
   x="0px"
   version="1.1"><metadata
     id="metadata24"><rdf:RDF><cc:Work
         rdf:about=""><dc:format>image/svg+xml</dc:format><dc:type
           rdf:resource="http://purl.org/dc/dcmitype/StillImage" /></cc:Work></rdf:RDF></metadata><defs
     id="defs22" /><switch
     id="switch16"><g
       id="g14"><g
         id="g12"><g
           id="g10"><path
             style="fill:#0e4c87"
             id="path2"
             d="m 12.209,1.995 c 0.934,0.936 1.869,1.871 2.805,2.804 C 11.532,8.281 8.104,11.709 4.624,15.19 3.689,14.254 2.754,13.319 1.82,12.385 5.299,8.904 8.778,5.423 12.209,1.995 Z m 0.934,2.859 C 10.287,7.659 7.48,10.462 4.676,13.32 4.728,13.372 4.833,13.475 4.883,13.529 7.739,10.672 10.545,7.865 13.351,5.061 13.3,4.957 13.195,4.904 13.143,4.854 Z M 3.689,12.332 C 6.546,9.477 9.351,6.671 12.104,3.918 12.052,3.812 12.002,3.762 11.948,3.658 9.143,6.516 6.337,9.27 3.534,12.073 c 0.051,0.104 0.103,0.156 0.155,0.259 z" /><path
             style="fill:#0e4c87"
             id="path4"
             d="M 15.74,4.178 C 14.753,3.191 13.818,2.255 12.831,1.217 13.142,0.905 13.506,0.541 13.87,0.23 c 0.364,-0.313 0.78,-0.313 1.144,0.052 0.57,0.572 1.142,1.144 1.713,1.713 0.313,0.313 0.313,0.778 0.053,1.09 -0.365,0.417 -0.728,0.78 -1.04,1.093 z" /><path
             style="fill:#0e4c87"
             id="path6"
             d="M 4.052,15.812 C 3.273,16.021 2.546,16.283 1.765,16.489 1.663,16.541 1.507,16.436 1.455,16.385 1.143,16.125 0.883,15.866 0.676,15.606 0.573,15.504 0.52,15.398 0.52,15.294 c 0.206,-0.779 0.416,-1.558 0.676,-2.337 0.934,0.987 1.868,1.921 2.856,2.855 z" /><path
             style="fill:#0e4c87"
             id="path8"
             d="M 1.143,16.697 C 0.779,16.8 0.467,16.905 0,17.008 c 0.105,-0.416 0.208,-0.779 0.364,-1.196 0.26,0.313 0.519,0.572 0.779,0.885 z" /></g></g></g></switch></svg>