<?xml version="1.0" encoding="UTF-8" standalone="no"?>
<svg
   xmlns:dc="http://purl.org/dc/elements/1.1/"
   xmlns:cc="http://creativecommons.org/ns#"
   xmlns:rdf="http://www.w3.org/1999/02/22-rdf-syntax-ns#"
   xmlns:svg="http://www.w3.org/2000/svg"
   xmlns="http://www.w3.org/2000/svg"
   id="svg17"
   xml:space="preserve"
   enable-background="new 0 0 17.161 17.393"
   viewBox="0 0 17.161 17.393"
   height="17.393px"
   width="17.161px"
   y="0px"
   x="0px"
   version="1.1"><metadata
     id="metadata23"><rdf:RDF><cc:Work
         rdf:about=""><dc:format>image/svg+xml</dc:format><dc:type
           rdf:resource="http://purl.org/dc/dcmitype/StillImage" /></cc:Work></rdf:RDF></metadata><defs
     id="defs21" /><switch
     id="switch15"><g
       id="g13"><path
         id="ellipse2"
         d="M 17.161,3.3 A 3.2780001,3.3 0 0 1 13.883,6.5999999 3.2780001,3.3 0 0 1 10.605,3.3 3.2780001,3.3 0 0 1 13.883,0 3.2780001,3.3 0 0 1 17.161,3.3 Z"
         style="fill:#124e8b" /><path
         style="fill:none;stroke:#124e8b;stroke-width:0.7694;stroke-miterlimit:10"
         id="path4"
         d="m 13.516,15.776 c 0,0.68 -0.616,1.231 -1.375,1.231 H 5.325 C 4.567,17.007 3.95,16.455 3.95,15.776 V 2.896 c 0,-0.68 0.616,-1.231 1.375,-1.231 h 6.815 c 0.759,0 1.375,0.551 1.375,1.231 v 12.88 z"
         stroke-miterlimit="10" /><g
         id="g8"><path
           style="fill:#f1f2f2"
           id="path6"
           d="M 12.223,3.827 V 2.906 h 3.453 v 0.921 z" /></g><path
         id="XMLID_3_"
         d="m 12.906,11.592 h 3.582001"
         style="fill:none;stroke:#124e8b;stroke-width:0.96170002;stroke-miterlimit:10" /><path
         id="XMLID_2_"
         d="m 4.447,11.592 h 0.372 l 1.079,-1.361 1.449,1.579 1.204,-5.872 1.137,7.202 0.889,-1.548 h 2.358"
         style="fill:none;stroke:#124e8b;stroke-width:0.96170002;stroke-miterlimit:10" /><path
         id="XMLID_1_"
         d="M 0,11.592 H 4.447"
         style="fill:none;stroke:#124e8b;stroke-width:0.96170002;stroke-miterlimit:10" /></g></switch></svg>