<?xml version="1.0" encoding="UTF-8" standalone="no"?>
<svg
   xmlns:dc="http://purl.org/dc/elements/1.1/"
   xmlns:cc="http://creativecommons.org/ns#"
   xmlns:rdf="http://www.w3.org/1999/02/22-rdf-syntax-ns#"
   xmlns:svg="http://www.w3.org/2000/svg"
   xmlns="http://www.w3.org/2000/svg"
   id="svg10"
   xml:space="preserve"
   enable-background="new 0 0 16.537 17.008"
   viewBox="0 0 16.537 17.008"
   height="17.008px"
   width="16.537px"
   y="0px"
   x="0px"
   version="1.1"><metadata
     id="metadata16"><rdf:RDF><cc:Work
         rdf:about=""><dc:format>image/svg+xml</dc:format><dc:type
           rdf:resource="http://purl.org/dc/dcmitype/StillImage" /></cc:Work></rdf:RDF></metadata><defs
     id="defs14" /><switch
     id="switch8"><g
       id="g6"><g
         id="g4"><path
           style="fill:#124e8b"
           id="path2"
           d="M 10.93,8.136 3.085,16.423 C 2.343,17.166 1.248,17.221 0.505,16.478 -0.238,15.733 -0.129,14.641 0.613,13.9 L 8.459,5.609 c 0,0 0.188,-0.383 0.112,-0.834 0,0 -0.506,-1.981 1.154,-3.643 0,0 1.6,-1.75 4.19,-0.897 l -2.307,2.301 c 0,0 0.437,0.575 1.236,1.354 0.497,0.485 0.343,0.285 1.16,1.042 l 2.301,-2.297 c 0,0 0.925,2.352 -0.929,4.207 0,0 -1.241,1.459 -3.508,1.146 10e-4,-0.001 -0.586,-0.204 -0.938,0.148 z" /></g></g></switch></svg>