<?xml version="1.0" encoding="UTF-8" standalone="no"?>
<svg
   xmlns:dc="http://purl.org/dc/elements/1.1/"
   xmlns:cc="http://creativecommons.org/ns#"
   xmlns:rdf="http://www.w3.org/1999/02/22-rdf-syntax-ns#"
   xmlns:svg="http://www.w3.org/2000/svg"
   xmlns="http://www.w3.org/2000/svg"
   id="svg18"
   xml:space="preserve"
   enable-background="new 0 0 59.998 59.998"
   viewBox="0 0 59.998 59.998"
   height="59.998px"
   width="59.998px"
   y="0px"
   x="0px"
   version="1.1"><metadata
     id="metadata24"><rdf:RDF><cc:Work
         rdf:about=""><dc:format>image/svg+xml</dc:format><dc:type
           rdf:resource="http://purl.org/dc/dcmitype/StillImage" /></cc:Work></rdf:RDF></metadata><defs
     id="defs22" /><switch
     id="switch16"><g
       id="g14"><path
         style="fill:none;stroke:#ec2127;stroke-width:1.00800002;stroke-miterlimit:10"
         id="path2"
         d="m 21.499,11.871 c 0,4.768 -3.865,8.635 -8.631,8.635 -4.769,0 -8.633,-3.867 -8.633,-8.635 0,-4.766 3.864,-8.631 8.633,-8.631 4.765,0 8.631,3.865 8.631,8.631 z"
         stroke-miterlimit="10" /><path
         id="XMLID_11604_"
         d="m -0.002,-0.009 h 60 v 60.007 h -60 z"
         style="fill:#0e2045" /><g
         id="XMLID_10117_"><g
           id="XMLID_10653_"><path
             style="fill:none;stroke:#425876;stroke-width:1.45430005;stroke-miterlimit:10"
             d="M 28.242,54.148 H 15.835 c -4.42,0 -8.226,-3.813 -8.226,-8.244 V 14.4 c 0,-4.429 3.806,-8.492 8.226,-8.492 h 12.406 v 48.24 z"
             stroke-miterlimit="10"
             id="XMLID_10888_" /><path
             style="fill:none;stroke:#425876;stroke-width:1.45430005;stroke-miterlimit:10"
             d="M 52.219,15.382 H 50.427 C 50.058,8.495 46.622,5.907 42.445,5.907 H 30.902 v 48.24 H 42.57 c 4.053,0 7.488,0.86 7.979,-6.028 h 1.835 c 0.252,0 0.252,-0.126 0.252,-0.368 V 46.274 16.739 16 c -0.125,-0.245 -0.039,-0.618 -0.417,-0.618 z"
             stroke-miterlimit="10"
             id="XMLID_10680_" /><g
             id="XMLID_10658_"><path
               style="fill:none;stroke:#425876;stroke-width:1.45430005;stroke-miterlimit:10"
               d="m 23.943,13.663 c 0,0.984 -0.736,1.721 -1.721,1.721 H 13.75 c -0.983,0 -1.719,-0.736 -1.719,-1.721 V 12.8 c 0,-0.981 0.735,-1.72 1.719,-1.72 h 8.473 c 0.984,0 1.721,0.738 1.721,1.72 v 0.863 z"
               stroke-miterlimit="10"
               id="XMLID_10660_" /></g></g></g><path
         style="fill:#78bc43"
         d="m 16.173,13.513 c 0,0.49 -0.488,0.983 -0.979,0.983 H 14.58 c -0.493,0 -0.984,-0.493 -0.984,-0.983 v -0.617 c 0,-0.493 0.491,-0.984 0.984,-0.984 h 0.614 c 0.49,0 0.979,0.491 0.979,0.984 z"
         id="XMLID_10659_" /><path
         id="circle12"
         d="M 21.497,11.872 A 8.6309996,8.6309996 0 0 1 12.866,20.502999 8.6309996,8.6309996 0 0 1 4.2350006,11.872 8.6309996,8.6309996 0 0 1 12.866,3.2410002 8.6309996,8.6309996 0 0 1 21.497,11.872 Z"
         style="fill:none;stroke:#eb2429;stroke-width:1.0079;stroke-miterlimit:10" /></g></switch></svg>