<?xml version="1.0" encoding="UTF-8" standalone="no"?>
<svg
   xmlns:dc="http://purl.org/dc/elements/1.1/"
   xmlns:cc="http://creativecommons.org/ns#"
   xmlns:rdf="http://www.w3.org/1999/02/22-rdf-syntax-ns#"
   xmlns:svg="http://www.w3.org/2000/svg"
   xmlns="http://www.w3.org/2000/svg"
   id="svg20"
   xml:space="preserve"
   enable-background="new 0 0 17.182 17.391"
   viewBox="0 0 17.182 17.391"
   height="17.391px"
   width="17.182px"
   y="0px"
   x="0px"
   version="1.1"><metadata
     id="metadata26"><rdf:RDF><cc:Work
         rdf:about=""><dc:format>image/svg+xml</dc:format><dc:type
           rdf:resource="http://purl.org/dc/dcmitype/StillImage" /></cc:Work></rdf:RDF></metadata><defs
     id="defs24" /><switch
     id="switch18"><g
       id="g16"><path
         id="rect2"
         d="M 0,0 H 17.181999 V 17.391001 H 0 Z"
         style="fill:#134d87" /><g
         id="g14"><g
           id="g12"><path
             style="fill:#f2f2f2"
             id="path4"
             d="m 12.057,2.563 c 0.869,0.871 1.74,1.74 2.61,2.609 C 11.427,8.412 8.238,11.601 5,14.84 4.131,13.969 3.26,13.1 2.391,12.23 5.628,8.992 8.865,5.753 12.057,2.563 Z m 0.869,2.66 c -2.658,2.609 -5.27,5.218 -7.878,7.876 0.048,0.049 0.146,0.145 0.193,0.195 2.658,-2.659 5.268,-5.27 7.878,-7.879 C 13.072,5.319 12.974,5.27 12.926,5.223 Z M 4.13,12.181 C 6.788,9.524 9.398,6.913 11.959,4.352 11.911,4.253 11.864,4.207 11.814,4.11 c -2.61,2.659 -5.22,5.221 -7.829,7.829 0.048,0.098 0.097,0.146 0.145,0.242 z" /><path
             style="fill:#f2f2f2"
             id="path6"
             d="M 15.342,4.594 C 14.424,3.676 13.554,2.804 12.636,1.839 12.926,1.549 13.264,1.21 13.602,0.92 13.94,0.628 14.327,0.628 14.666,0.968 15.197,1.5 15.729,2.032 16.259,2.562 16.55,2.853 16.55,3.286 16.309,3.577 15.97,3.966 15.633,4.303 15.342,4.594 Z" /><path
             style="fill:#f2f2f2"
             id="path8"
             d="M 4.467,15.418 C 3.742,15.612 3.066,15.856 2.34,16.048 2.245,16.096 2.099,15.998 2.051,15.951 1.76,15.709 1.519,15.468 1.326,15.225 1.23,15.13 1.181,15.031 1.181,14.935 1.372,14.209 1.568,13.485 1.81,12.76 c 0.869,0.921 1.738,1.79 2.657,2.658 z" /><path
             style="fill:#f2f2f2"
             id="path10"
             d="m 1.761,16.242 c -0.338,0.096 -0.629,0.193 -1.063,0.289 0.098,-0.386 0.193,-0.725 0.338,-1.113 0.242,0.292 0.484,0.534 0.725,0.824 z" /></g></g></g></switch></svg>