<?xml version="1.0" encoding="UTF-8" standalone="no"?>
<svg
   xmlns:dc="http://purl.org/dc/elements/1.1/"
   xmlns:cc="http://creativecommons.org/ns#"
   xmlns:rdf="http://www.w3.org/1999/02/22-rdf-syntax-ns#"
   xmlns:svg="http://www.w3.org/2000/svg"
   xmlns="http://www.w3.org/2000/svg"
   id="svg16"
   xml:space="preserve"
   enable-background="new 0 0 17.161 17.392"
   viewBox="0 0 17.161 17.392"
   height="17.392px"
   width="17.161px"
   y="0px"
   x="0px"
   version="1.1"><metadata
     id="metadata22"><rdf:RDF><cc:Work
         rdf:about=""><dc:format>image/svg+xml</dc:format><dc:type
           rdf:resource="http://purl.org/dc/dcmitype/StillImage" /></cc:Work></rdf:RDF></metadata><defs
     id="defs20" /><switch
     id="switch14"><g
       id="g12"><path
         id="rect2"
         d="M -0.001,0.001 H 17.180999 V 17.392001 H -0.001 Z"
         style="fill:#104c86" /><path
         style="fill:#f1f2f2;stroke:#ffffff;stroke-width:0.1"
         id="path4"
         d="m 3.34,14.551 c -0.085,0.719 -0.452,1.75 -0.452,1.75 l 0.009,0.006 c 0,0 0.724,-1.035 1.277,-1.625 0.495,-0.505 1.307,-1.263 1.689,-2.014 0.382,-0.75 2.699,-5.536 2.699,-5.536 L 8.571,6.974 6.535,5.611 c 0,0 0.201,0.494 -0.081,1.063 -0.542,1.094 -2.297,4.709 -2.603,5.312 -0.368,0.73 -0.443,2.021 -0.511,2.565 z" /><path
         style="fill:#f1f2f2;stroke:#ffffff;stroke-width:0.1"
         id="path6"
         d="m 13.809,14.551 c 0.084,0.718 0.451,1.75 0.451,1.75 l -0.009,0.006 c 0,0 -0.724,-1.035 -1.276,-1.625 C 12.479,14.177 11.667,13.419 11.284,12.668 10.9,11.918 8.567,7.132 8.567,7.132 L 8.557,6.974 10.608,5.611 c 0,0 -0.203,0.494 0.082,1.063 0.545,1.094 2.302,4.709 2.608,5.312 0.367,0.729 0.442,2.02 0.511,2.565 z" /><path
         id="line8"
         d="M 8.5640001,1.12 V 3.4820001"
         style="fill:none;stroke:#f1f2f2" /><path
         id="circle10"
         d="m 10.434,5.1030002 a 1.855,1.855 0 0 1 -1.8549995,1.855 1.855,1.855 0 0 1 -1.855,-1.855 1.855,1.855 0 0 1 1.855,-1.8550001 A 1.855,1.855 0 0 1 10.434,5.1030002 Z"
         style="fill:#104c86;stroke:#f1f2f2" /></g></switch></svg>