<?xml version="1.0" encoding="UTF-8" standalone="no"?>
<svg
   xmlns:dc="http://purl.org/dc/elements/1.1/"
   xmlns:cc="http://creativecommons.org/ns#"
   xmlns:rdf="http://www.w3.org/1999/02/22-rdf-syntax-ns#"
   xmlns:svg="http://www.w3.org/2000/svg"
   xmlns="http://www.w3.org/2000/svg"
   id="svg12"
   xml:space="preserve"
   enable-background="new 0 0 19.375 19.375"
   viewBox="0 0 19.375 19.375"
   height="19.375px"
   width="19.375px"
   y="0px"
   x="0px"
   version="1.1"><metadata
     id="metadata18"><rdf:RDF><cc:Work
         rdf:about=""><dc:format>image/svg+xml</dc:format><dc:type
           rdf:resource="http://purl.org/dc/dcmitype/StillImage" /></cc:Work></rdf:RDF></metadata><defs
     id="defs16" /><switch
     id="switch10"><g
       id="g8"><path
         id="circle2"
         d="M 19.375999,9.6879997 A 9.6879997,9.6879997 0 0 1 9.6879997,19.375999 9.6879997,9.6879997 0 0 1 0,9.6879997 9.6879997,9.6879997 0 0 1 9.6879997,0 9.6879997,9.6879997 0 0 1 19.375999,9.6879997 Z"
         style="fill:#00528e" /><g
         id="g6"><path
           style="fill:#f2f2f2"
           id="path4"
           d="M 11.582,10.014 C 11.554,9.204 11.525,8.225 11.525,7.245 h -0.019 c -0.208,0.86 -0.471,1.819 -0.716,2.609 l -0.772,2.628 H 8.898 L 8.221,9.884 C 8.014,9.084 7.807,8.125 7.647,7.245 H 7.628 C 7.6,8.155 7.562,9.194 7.524,10.034 L 7.401,12.593 H 6.074 L 6.479,5.857 h 1.912 l 0.621,2.249 c 0.207,0.779 0.396,1.619 0.537,2.408 H 9.587 C 9.756,9.735 9.973,8.845 10.19,8.096 l 0.668,-2.239 h 1.883 l 0.339,6.736 h -1.394 z" /></g></g></switch></svg>