<?xml version="1.0" encoding="UTF-8" standalone="no"?>
<svg
   xmlns:dc="http://purl.org/dc/elements/1.1/"
   xmlns:cc="http://creativecommons.org/ns#"
   xmlns:rdf="http://www.w3.org/1999/02/22-rdf-syntax-ns#"
   xmlns:svg="http://www.w3.org/2000/svg"
   xmlns="http://www.w3.org/2000/svg"
   id="svg14"
   xml:space="preserve"
   enable-background="new 0 0 60 60"
   viewBox="0 0 60 60"
   height="60px"
   width="60px"
   y="0px"
   x="0px"
   version="1.1"><metadata
     id="metadata20"><rdf:RDF><cc:Work
         rdf:about=""><dc:format>image/svg+xml</dc:format><dc:type
           rdf:resource="http://purl.org/dc/dcmitype/StillImage" /></cc:Work></rdf:RDF></metadata><defs
     id="defs18" /><switch
     id="switch12"><g
       id="g10"><path
         id="rect2"
         d="M 0,0 H 60 V 60 H 0 Z"
         style="fill:#171e43" /><g
         id="g6"><path
           style="fill:#fecf0a"
           id="path4"
           d="m 22.217,26.936 c -0.943,0.859 -0.928,1.016 -0.738,1.229 l 6.639,6.146 c 0,0 0.245,0.246 0.245,0.491 v 0 c 0,0.246 -0.245,0.492 -0.245,0.492 0,0 -6.391,5.892 -6.639,6.146 -0.171,0.176 -0.491,0.246 0.738,1.229 1.229,1.229 1.229,0.983 1.475,0.737 l 4.917,-4.671 v 0 0 c 0.246,-0.246 0.737,-0.737 0.737,-0.246 0,0.491 0,11.062 0,11.309 v 0 0.245 c 0,0.492 0.492,0.738 0.737,0.738 0.246,0 0.492,0 0.737,-0.246 v 0 c 0,0 8.604,-8.112 8.851,-8.604 0.245,-0.246 0.245,-0.738 0,-0.983 l -6.146,-5.9 c 0,0 -0.245,-0.246 -0.245,-0.491 0,-0.246 0.245,-0.492 0.245,-0.492 l 6.146,-5.9 c 0.245,-0.246 0.245,-0.737 0,-0.983 -0.247,0 -8.851,-8.112 -8.851,-8.112 v 0 c -0.245,-0.246 -0.491,-0.246 -0.737,-0.246 -0.492,0 -0.737,0.246 -0.737,0.738 v 0.245 0 c 0,0.246 0,10.817 0,11.31 0,0.491 -0.491,0 -0.737,-0.246 v 0 0 L 23.692,26.2 c -0.247,-0.248 -0.247,-0.494 -1.475,0.736 z m 10.079,-1.722 c 0,-0.492 0.431,-0.013 0.737,0.246 l 2.213,2.212 c 0.246,0.246 0.246,0.246 0.246,0.492 0,0.246 -0.047,0.333 -0.246,0.492 -0.246,0.246 -2.213,2.213 -2.213,2.213 -0.246,0.246 -0.737,0.736 -0.737,0.246 0,-0.246 0,-5.409 0,-5.901 z m 0,14.013 c 0,-0.491 0.491,0 0.737,0.246 0,0 2.303,2.275 2.213,2.213 0.246,0.246 0.246,0.246 0.246,0.492 0,0.245 -0.078,0.32 -0.246,0.491 l -2.213,2.212 c -0.246,0.246 -0.737,0.738 -0.737,0.246 0,-0.492 0,-5.9 0,-5.9 z" /></g><path
         id="XMLID_165_"
         d="M 6.498,11.202 8.957,4.811 h 29.008 v 6.391 z"
         style="fill:none;stroke:#fecf0a;stroke-width:1.25;stroke-miterlimit:10" /><path
         style="fill:none;stroke:#fecf0a;stroke-width:1.25;stroke-miterlimit:10"
         d="m 54.435,42.914 c -0.737,5.163 -4.179,12.047 -10.816,12.047 h -23.6 C 13.381,54.961 5.76,46.357 5.76,41.193 V 15.135 h 48.675 z"
         stroke-miterlimit="10"
         id="XMLID_164_" /></g></switch></svg>