<?xml version="1.0" encoding="UTF-8" standalone="no"?>
<svg
   xmlns:dc="http://purl.org/dc/elements/1.1/"
   xmlns:cc="http://creativecommons.org/ns#"
   xmlns:rdf="http://www.w3.org/1999/02/22-rdf-syntax-ns#"
   xmlns:svg="http://www.w3.org/2000/svg"
   xmlns="http://www.w3.org/2000/svg"
   xmlns:sodipodi="http://sodipodi.sourceforge.net/DTD/sodipodi-0.dtd"
   xmlns:inkscape="http://www.inkscape.org/namespaces/inkscape"
   version="1.1"
   id="Capa_1"
   x="0px"
   y="0px"
   viewBox="0 0 30 30"
   xml:space="preserve"
   sodipodi:docname="glass.svg"
   width="30"
   height="30"
   inkscape:version="0.92.4 (5da689c313, 2019-01-14)"><metadata
   id="metadata9"><rdf:RDF><cc:Work
       rdf:about=""><dc:format>image/svg+xml</dc:format><dc:type
         rdf:resource="http://purl.org/dc/dcmitype/StillImage" /><dc:title></dc:title></cc:Work></rdf:RDF></metadata><defs
   id="defs7" /><sodipodi:namedview
   pagecolor="#ffffff"
   bordercolor="#666666"
   borderopacity="1"
   objecttolerance="10"
   gridtolerance="10"
   guidetolerance="10"
   inkscape:pageopacity="0"
   inkscape:pageshadow="2"
   inkscape:window-width="1920"
   inkscape:window-height="1017"
   id="namedview5"
   showgrid="false"
   fit-margin-top="0"
   fit-margin-left="0"
   fit-margin-right="0"
   fit-margin-bottom="0"
   inkscape:zoom="11.71767"
   inkscape:cx="17.441751"
   inkscape:cy="9.0988311"
   inkscape:window-x="1912"
   inkscape:window-y="-8"
   inkscape:window-maximized="1"
   inkscape:current-layer="Capa_1" />
<path
   d="m 22.528862,21.607635 -3.82782,-3.981127 c 0.984199,-1.169972 1.523448,-2.642036 1.523448,-4.17452 0,-3.5804996 -2.913073,-6.4935735 -6.493573,-6.4935735 -3.580501,0 -6.4935749,2.9130739 -6.4935749,6.4935735 0,3.5805 2.9130739,6.493573 6.4935749,6.493573 1.344169,0 2.625097,-0.405424 3.720253,-1.175054 l 3.8569,4.011335 c 0.161211,0.167421 0.378039,0.259743 0.610396,0.259743 0.219935,0 0.428576,-0.08385 0.586963,-0.236308 0.336537,-0.323832 0.347266,-0.860823 0.02344,-1.197642 z M 13.730917,8.6523898 c 2.646554,0 4.799598,2.1530432 4.799598,4.7995982 0,2.646556 -2.153044,4.799599 -4.799598,4.799599 -2.646556,0 -4.7995987,-2.153043 -4.7995987,-4.799599 0,-2.646555 2.1530427,-4.7995982 4.7995987,-4.7995982 z"
   id="path2"
   style="fill:#ffffff;fill-opacity:1;stroke:#ffffff;stroke-width:0.84698796;stroke-miterlimit:4;stroke-dasharray:none;stroke-opacity:1"
   inkscape:connector-curvature="0" />
</svg>